<svg width="19" height="19" viewBox="0 0 19 19" xmlns="http://www.w3.org/2000/svg">
    <g fill="#0F58C5" fill-rule="nonzero">
        <path d="M5 5.429C5 5.192 5.192 5 5.429 5H18.57c.237 0 .429.192.429.429V18.57a.429.429 0 0 1-.429.429H5.43A.429.429 0 0 1 5 18.571V5.43zm.857.428v12.286h12.286V5.857H5.857z"/>
        <path d="M.857 13.143V.857h12.286V4.43a.429.429 0 0 0 .857 0v-4A.429.429 0 0 0 13.571 0H.43A.429.429 0 0 0 0 .429V13.57c0 .237.192.429.429.429h4a.429.429 0 0 0 0-.857H.857zM12.414 8v3.586H16v.828h-3.586V16h-.828v-3.586H8v-.828h3.586V8z"/>
    </g>
</svg>
