<svg xmlns="http://www.w3.org/2000/svg" xmlns:xlink="http://www.w3.org/1999/xlink" width="12" height="10" viewBox="0 0 12 10">
    <defs>
        <path id="a" d="M268.244 6.343c-.145 0-.29.012-.432.035-.631-.878-1.701-1.366-2.799-1.378-1.574.022-2.877 1.047-3.27 2.55C260.73 7.78 260 8.703 260 9.814c0 1.272 1.053 2.408 2.253 2.408h2.202v-1.107h-2.202c-.602 0-1.15-.63-1.15-1.3 0-.667.466-1.2 1.098-1.2h.14c.007 0 .006-.003.013-.003.33 0 .37-.291.37-.291l.025-.19a2.3 2.3 0 0 1 2.261-2.024c.842.013 1.659.43 2.065 1.177l.083.149s.15.274.486.136l.094-.034c.158-.055.323-.084.54-.084h.006c.908 0 1.724.727 1.724 1.715 0 1.025-.81 1.949-1.73 1.949h-1.6v1.107h1.6c1.508 0 2.833-1.44 2.833-3.056 0-1.6-1.309-2.822-2.867-2.823m-3.243 6.773V8.892c0-.308.248-.559.555-.559.306 0 .555.25.555.56v4.248l.174-.175a.546.546 0 0 1 .777 0 .556.556 0 0 1 0 .782l-1.067 1.074a.6.6 0 0 1-.854 0l-1.091-1.1a.556.556 0 0 1 0-.782.546.546 0 0 1 .776 0l.175.176z"/>
    </defs>
    <use fill="#0186BE" fill-rule="evenodd" transform="translate(-260 -5)" xlink:href="#a"/>
</svg>
