<svg width="146" height="167" viewBox="0 0 146 167" xmlns="http://www.w3.org/2000/svg" xmlns:xlink="http://www.w3.org/1999/xlink">
    <defs>
        <ellipse id="a" cx="58.595" cy="58.52" rx="58.533" ry="58.438"/>
    </defs>
    <g fill="none" fill-rule="evenodd">
        <g opacity=".36">
            <mask id="b" fill="#fff">
                <use xlink:href="#a"/>
            </mask>
            <g mask="url(#b)" stroke="#004EC2">
                <path d="M74.313-31.326-87.6 130.319M80.756-31.326l-161.91 161.645M87.198-31.326l-161.91 161.645M93.64-31.326-68.27 130.319M100.086-31.326-61.826 130.319M106.529-31.326-55.384 130.319M112.97-31.326-48.94 130.319M119.414-31.326l-161.91 161.645M125.857-31.326l-161.91 161.645M132.302-31.326-29.611 130.319M138.745-31.326-23.168 130.319M145.187-31.326l-161.91 161.645M151.63-31.326-10.28 130.319M158.073-31.326-3.837 130.319M164.518-31.326 2.605 130.319M170.96-31.326 9.049 130.319M177.403-31.326 15.493 130.319M183.846-31.326 21.936 130.319M190.289-31.326 28.379 130.319M196.734-31.326 34.82 130.319M203.177-31.326 41.264 130.319M209.619-31.326 47.709 130.319M216.062-31.326 54.152 130.319M222.505-31.326 60.594 130.319M228.95-31.326 67.037 130.319M235.392-31.326 73.48 130.319M241.835-31.326 79.925 130.319M248.278-31.326 86.368 130.319M254.72-31.326 92.81 130.319M261.166-31.326 99.253 130.319M267.608-31.326 105.696 130.319M274.05-31.326 112.14 130.319M280.494-31.326l-161.91 161.645M286.936-31.326l-161.91 161.645M293.382-31.326 131.469 130.319M299.824-31.326 137.912 130.319M306.267-31.326l-161.91 161.645"/>
            </g>
        </g>
        <g opacity=".33" fill="#004EC2" fill-rule="nonzero">
            <path d="M143.441 64.102a2.559 2.559 0 0 1-2.364-1.576 2.546 2.546 0 0 1 .557-2.781 2.564 2.564 0 0 1 2.791-.549 2.551 2.551 0 0 1-.984 4.906zM143.441 85.362a2.559 2.559 0 0 1-2.364-1.575 2.546 2.546 0 0 1 .555-2.78 2.564 2.564 0 0 1 2.788-.553 2.551 2.551 0 0 1 1.58 2.357 2.555 2.555 0 0 1-2.559 2.551zM143.441 105.772a2.559 2.559 0 0 1-2.364-1.577 2.546 2.546 0 0 1 .557-2.78 2.564 2.564 0 0 1 2.791-.55 2.551 2.551 0 0 1-.984 4.907zM143.441 126.181a2.555 2.555 0 0 1-2.559-2.551 2.555 2.555 0 0 1 2.56-2.551 2.555 2.555 0 0 1 2.558 2.55 2.555 2.555 0 0 1-2.559 2.552zM143.441 146.59a2.559 2.559 0 0 1-2.364-1.576 2.546 2.546 0 0 1 .557-2.781 2.564 2.564 0 0 1 2.791-.549 2.551 2.551 0 0 1-.984 4.907zM143.441 167a2.555 2.555 0 0 1-2.559-2.551 2.555 2.555 0 0 1 2.56-2.551 2.555 2.555 0 0 1 2.558 2.55c0 .677-.27 1.326-.75 1.805-.48.478-1.13.747-1.809.747zM122.978 64.102a2.559 2.559 0 0 1-2.37-1.571 2.546 2.546 0 0 1 .553-2.784 2.564 2.564 0 0 1 2.792-.551 2.551 2.551 0 0 1 1.576 2.362 2.555 2.555 0 0 1-2.551 2.544zM122.978 85.362a2.559 2.559 0 0 1-2.37-1.57 2.546 2.546 0 0 1 .55-2.782 2.564 2.564 0 0 1 2.79-.557 2.551 2.551 0 0 1 1.581 2.358 2.555 2.555 0 0 1-2.551 2.551zM122.978 105.772a2.559 2.559 0 0 1-2.37-1.572 2.546 2.546 0 0 1 .553-2.783 2.564 2.564 0 0 1 2.792-.552 2.551 2.551 0 0 1 1.576 2.362 2.555 2.555 0 0 1-2.551 2.545zM122.978 126.181a2.559 2.559 0 0 1-2.37-1.57 2.546 2.546 0 0 1 .55-2.783 2.564 2.564 0 0 1 2.79-.556 2.551 2.551 0 0 1 1.581 2.358 2.555 2.555 0 0 1-2.551 2.551zM122.978 146.59a2.559 2.559 0 0 1-2.37-1.571 2.546 2.546 0 0 1 .553-2.784 2.564 2.564 0 0 1 2.792-.551 2.551 2.551 0 0 1 1.576 2.362 2.555 2.555 0 0 1-2.551 2.545zM122.978 167a2.559 2.559 0 0 1-2.37-1.57 2.546 2.546 0 0 1 .55-2.783 2.564 2.564 0 0 1 2.79-.556 2.551 2.551 0 0 1 1.581 2.358 2.555 2.555 0 0 1-2.551 2.551zM102.507 64.102a2.559 2.559 0 0 1-2.37-1.571 2.546 2.546 0 0 1 .554-2.784 2.564 2.564 0 0 1 2.791-.551 2.551 2.551 0 0 1-.975 4.906zM102.507 85.362a2.559 2.559 0 0 1-2.369-1.57 2.546 2.546 0 0 1 .55-2.782 2.564 2.564 0 0 1 2.79-.557 2.551 2.551 0 0 1 1.58 2.358 2.555 2.555 0 0 1-2.551 2.551zM102.507 105.772a2.559 2.559 0 0 1-2.37-1.572 2.546 2.546 0 0 1 .554-2.783 2.564 2.564 0 0 1 2.791-.552 2.551 2.551 0 0 1-.975 4.907zM102.507 126.181a2.559 2.559 0 0 1-2.369-1.57 2.546 2.546 0 0 1 .55-2.783 2.564 2.564 0 0 1 2.79-.556 2.551 2.551 0 0 1 1.58 2.358 2.555 2.555 0 0 1-2.551 2.551zM102.507 146.59a2.559 2.559 0 0 1-2.37-1.571 2.546 2.546 0 0 1 .554-2.784 2.564 2.564 0 0 1 2.791-.551 2.551 2.551 0 0 1-.975 4.907zM102.507 167a2.559 2.559 0 0 1-2.369-1.57 2.546 2.546 0 0 1 .55-2.783 2.564 2.564 0 0 1 2.79-.556 2.551 2.551 0 0 1 1.58 2.358 2.555 2.555 0 0 1-2.551 2.551zM82.03 64.102a2.559 2.559 0 0 1-2.365-1.576 2.546 2.546 0 0 1 .558-2.781 2.564 2.564 0 0 1 2.79-.549 2.551 2.551 0 0 1-.984 4.906zM82.03 85.362a2.559 2.559 0 0 1-2.365-1.575 2.546 2.546 0 0 1 .555-2.78 2.564 2.564 0 0 1 2.789-.553 2.551 2.551 0 0 1 1.58 2.357 2.555 2.555 0 0 1-2.56 2.551zM82.03 105.772a2.559 2.559 0 0 1-2.365-1.577 2.546 2.546 0 0 1 .558-2.78 2.564 2.564 0 0 1 2.79-.55 2.551 2.551 0 0 1-.984 4.907zM82.03 126.181a2.555 2.555 0 0 1-2.56-2.551 2.555 2.555 0 0 1 2.56-2.551 2.555 2.555 0 0 1 2.558 2.55 2.555 2.555 0 0 1-2.559 2.552zM82.03 146.59a2.559 2.559 0 0 1-2.365-1.576 2.546 2.546 0 0 1 .558-2.781 2.564 2.564 0 0 1 2.79-.549 2.551 2.551 0 0 1-.984 4.907zM82.03 167a2.555 2.555 0 0 1-2.56-2.551 2.555 2.555 0 0 1 2.56-2.551 2.555 2.555 0 0 1 2.558 2.55c0 .677-.27 1.326-.75 1.805-.48.478-1.13.747-1.809.747zM61.566 64.102a2.559 2.559 0 0 1-2.37-1.571 2.546 2.546 0 0 1 .554-2.784 2.564 2.564 0 0 1 2.791-.551 2.551 2.551 0 0 1 1.577 2.362 2.555 2.555 0 0 1-2.552 2.544zM61.566 85.362a2.559 2.559 0 0 1-2.37-1.57 2.546 2.546 0 0 1 .551-2.782 2.564 2.564 0 0 1 2.79-.557 2.551 2.551 0 0 1 1.58 2.358 2.555 2.555 0 0 1-2.551 2.551zM61.566 105.772a2.559 2.559 0 0 1-2.37-1.572 2.546 2.546 0 0 1 .554-2.783 2.564 2.564 0 0 1 2.791-.552 2.551 2.551 0 0 1 1.577 2.362 2.555 2.555 0 0 1-2.552 2.545zM61.566 126.181a2.559 2.559 0 0 1-2.37-1.57 2.546 2.546 0 0 1 .551-2.783 2.564 2.564 0 0 1 2.79-.556 2.551 2.551 0 0 1 1.58 2.358 2.555 2.555 0 0 1-2.551 2.551zM61.566 146.59a2.559 2.559 0 0 1-2.37-1.571 2.546 2.546 0 0 1 .554-2.784 2.564 2.564 0 0 1 2.791-.551 2.551 2.551 0 0 1 1.577 2.362 2.555 2.555 0 0 1-2.552 2.545zM61.566 167a2.559 2.559 0 0 1-2.37-1.57 2.546 2.546 0 0 1 .551-2.783 2.564 2.564 0 0 1 2.79-.556 2.551 2.551 0 0 1 1.58 2.358A2.555 2.555 0 0 1 61.567 167z"/>
        </g>
    </g>
</svg>
