<svg width="20" height="20" viewBox="0 0 20 20" xmlns="http://www.w3.org/2000/svg">
    <g fill="#0F58C5" fill-rule="nonzero">
        <path d="M1.094 17.031V1.094H7.93l4.725 4.725v5.431a.469.469 0 1 0 .938 0V5.625a.469.469 0 0 0-.138-.331l-5-5a.469.469 0 0 0-.331-.138h-7.5a.469.469 0 0 0-.469.469V17.5c0 .259.21.469.469.469h10.188a.469.469 0 1 0 0-.938h-9.72z"/>
        <path d="M8.594 5.156V.625a.469.469 0 1 0-.938 0v5c0 .259.21.469.469.469h5a.469.469 0 1 0 0-.938H8.594zM14.625 16.719a2.031 2.031 0 1 0 0-4.063 2.031 2.031 0 0 0 0 4.063zm0-.938a1.094 1.094 0 1 1 0-2.187 1.094 1.094 0 0 1 0 2.187z"/>
        <path d="m18.822 14.224.685-.375a.469.469 0 0 0 .18-.647l-1.25-2.156a.469.469 0 0 0-.641-.17l-.697.405a4.219 4.219 0 0 0-.724-.411V10a.469.469 0 0 0-.469-.469h-2.5a.469.469 0 0 0-.469.469v.838c-.255.114-.499.253-.727.414l-.73-.41a.469.469 0 0 0-.637.175l-1.25 2.188a.469.469 0 0 0 .176.64l.657.373a4.094 4.094 0 0 0 0 .879l-.754.434a.469.469 0 0 0-.171.642l1.25 2.156c.127.22.407.298.63.176l.759-.414c.24.175.496.324.766.445v.839c0 .259.21.469.469.469h2.5c.259 0 .469-.21.469-.469v-.84a4.25 4.25 0 0 0 .788-.464l.75.455c.225.137.52.06.65-.168l1.25-2.188a.469.469 0 0 0-.17-.637l-.79-.465c.029-.28.029-.564 0-.844zm-.865 3.25-.62-.375a.469.469 0 0 0-.553.049 3.313 3.313 0 0 1-1.067.63.469.469 0 0 0-.31.44v.688h-1.563v-.687a.469.469 0 0 0-.312-.442 3.281 3.281 0 0 1-1.04-.602.469.469 0 0 0-.529-.055l-.63.344-.785-1.355.623-.359a.469.469 0 0 0 .227-.495 3.156 3.156 0 0 1 0-1.197.469.469 0 0 0-.23-.497l-.528-.3.786-1.374.594.334c.17.095.38.076.53-.048.3-.25.643-.445 1.012-.575a.469.469 0 0 0 .313-.442v-.687h1.563v.719c0 .198.125.376.313.442.369.13.711.324 1.012.574a.469.469 0 0 0 .535.045l.563-.327.774 1.335-.548.3a.469.469 0 0 0-.235.498c.072.387.072.784 0 1.171a.469.469 0 0 0 .223.49l.663.39-.781 1.369z"/>
    </g>
</svg>
