<svg width="19" height="19" viewBox="0 0 19 19" xmlns="http://www.w3.org/2000/svg">
    <g fill="#0F58C5" fill-rule="nonzero">
        <path d="M9.979 3.356a.452.452 0 0 1-.447-.458c0-.252.2-.457.447-.457h.149V.915H7.447v1.526h.149c.232 0 .423.181.445.413l.002.044a.454.454 0 0 1-.404.456l-.043.002H6.404a.452.452 0 0 1-.447-.458c0-.238.178-.433.404-.455l.043-.002h.15V.915H3.871v1.526h.15c.232 0 .422.181.444.413l.002.044a.454.454 0 0 1-.404.456l-.043.002H2.83a.452.452 0 0 1-.447-.458c0-.238.177-.433.404-.455l.043-.002h.149V.915H.894v16.17h9.502c.247 0 .447.205.447.457a.454.454 0 0 1-.404.456l-.043.002H.446a.451.451 0 0 1-.444-.414L0 17.542V.458C0 .22.177.024.404.002L.447 0h13.106c.232 0 .423.181.445.414L14 .458V9c0 .253-.2.458-.447.458a.451.451 0 0 1-.445-.414L13.106 9V.915h-2.085v1.526h.15c.231 0 .422.181.444.413l.002.044c0 .253-.2.458-.447.458H9.98z"/>
        <path d="M14 19a5 5 0 1 0 0-10 5 5 0 0 0 0 10zm0-.857a4.143 4.143 0 1 1 0-8.286 4.143 4.143 0 0 1 0 8.286z"/>
        <path d="M14 11c.262 0 .474.212.474.474v2.052h2.052c.247 0 .449.188.472.428L17 14a.474.474 0 0 1-.474.474h-2.052v2.052a.474.474 0 0 1-.428.472L14 17a.474.474 0 0 1-.474-.474v-2.052h-2.052a.474.474 0 0 1-.472-.428L11 14c0-.262.212-.474.474-.474h2.052v-2.052c0-.247.188-.449.428-.472L14 11z"/>
    </g>
</svg>
