<svg width="50" height="21" viewBox="0 0 50 21" xmlns="http://www.w3.org/2000/svg">
    <g fill-rule="nonzero" fill="none">
        <path d="M26 11.919c0 .486-.1.973-.3 1.297-.2.379-.4.703-.7.973-.35.325-.75.487-1.15.595-.4.108-.95.216-1.6.216H19V5h2.75c.65 0 1.15.054 1.5.108.35.054.65.162 1 .378.35.217.6.433.75.757.15.325.25.649.25 1.081 0 .433-.1.865-.35 1.19-.25.378-.5.594-.9.81v.054c.6.163 1.1.433 1.5.92.3.378.5.918.5 1.62zm-2.05-4.487c0-.27-.05-.432-.1-.594-.1-.162-.2-.324-.35-.379-.2-.108-.4-.216-.7-.216-.3-.054-.6-.054-1-.054h-1.45v2.865h1.6c.35 0 .7 0 .95-.054s.4-.162.65-.27c.2-.162.35-.325.4-.487-.05-.27 0-.486 0-.81zm.75 4.541c0-.378-.05-.703-.2-.973-.1-.27-.35-.432-.6-.595-.15-.108-.4-.216-.65-.216-.3-.054-.6-.054-1-.054h-1.9v3.73H22c.55 0 1-.054 1.3-.108.35-.054.6-.162.85-.379.25-.162.4-.378.5-.594 0-.162.05-.487.05-.811zM32.897 13.803h-1.19v-.74c-.362.345-.776.543-1.138.69-.362.198-.776.247-1.241.247-.776 0-1.345-.246-1.707-.64-.414-.445-.621-1.036-.621-1.923V7.049h1.19v3.845c0 .345 0 .641.051.888.052.246.104.443.259.64.103.198.259.346.414.346.207.098.414.147.827.147.31 0 .673-.098 1.035-.246a4.275 4.275 0 0 0 1.034-.592V7H33v6.803h-.103zM39 8.319c-.294-.05-.412-.102-.647-.102-.235 0-.412-.05-.647-.05-.412 0-.824.101-1.177.253-.411.152-.764.355-1.176.609V14H34V7.05h1.353v1.015c.53-.355 1.059-.66 1.412-.811C37.176 7.1 37.588 7 38 7h.47c.06 0 .295.05.471.05L39 8.32zM45 11.924c0 .628-.33 1.11-.88 1.497-.551.386-1.377.579-2.368.579-.55 0-1.1-.048-1.541-.193-.44-.145-.88-.241-1.156-.386v-1.255h.055c.385.29.88.482 1.321.627.496.145.991.241 1.431.241.55 0 1.046-.096 1.321-.24.33-.194.44-.387.44-.773 0-.29-.11-.435-.274-.58-.166-.144-.496-.29-.991-.338-.22-.048-.386-.096-.716-.144-.33-.049-.55-.097-.825-.145-.661-.145-1.101-.386-1.432-.676C39.11 9.8 39 9.462 39 9.028c0-.29.055-.531.22-.773.165-.241.33-.434.606-.627.275-.194.55-.338.99-.435.386-.096.826-.193 1.322-.193.44 0 .935.048 1.376.145.44.096.88.241 1.156.338V8.69h.055c-.33-.242-.716-.387-1.156-.531a4.587 4.587 0 0 0-1.376-.242c-.44 0-.881.097-1.156.242a.776.776 0 0 0-.44.724c0 .29.11.483.33.627.22.145.495.29.935.338.276.049.496.097.771.145.275.048.495.097.716.145.605.145 1.1.338 1.376.628.165.29.275.627.275 1.158zM49.944 14.78c-.281.055-.506.11-.787.165-.337.055-.505.055-.786.055-.787 0-1.405-.22-1.854-.604-.45-.385-.618-1.1-.618-1.978V8.297H45v-1.1h.955V5h1.292v2.198h2.697v1.099h-2.697v3.461c0 .385 0 .715.056.934 0 .22.113.385.225.605.112.22.281.33.393.384.169.11.45.11.843.11.225 0 .393-.055.674-.11.225-.055.393-.11.506-.165H50l-.056 1.264z" fill="#000"/>
        <path d="M44.574 15.75s-.885 1.995-3.385 1.995c-2.239 0-3.332-1.995-3.332-1.995H18.069s-.052.315-.364 1.365c-.365 1.103-.782 1.628-.782 1.628-2.29 2.362-4.01-.42-5.884-1.943-.625-.473-1.301-.788-1.926-.893 4.01-.472 7.134-3.832 7.134-7.927C16.247 3.57 12.6 0 8.175 0 3.75 0 0 3.57 0 7.98c0 3.99 3.02 7.297 6.926 7.875C2.396 16.8 2.135 21 2.135 21s.104-.21.364-.683c.313-.524 1.094-1.732 1.98-2.467.989-.788 2.915-1.733 4.946-.945 2.083.735 2.812 3.675 5.572 3.78 2.864.105 3.645-3.255 3.801-4.2h18.538c.364.367 1.51 1.995 3.801 1.995 2.552 0 3.489-1.628 3.75-1.995H49v-.735h-4.426zM2.604 7.98c0-4.148 2.5-7.508 5.467-7.508 3.072 0 5.468 3.36 5.468 7.508 0 4.147-2.448 7.508-5.468 7.508-2.968 0-5.467-3.36-5.467-7.508z" fill="#ED202A"/>
    </g>
</svg>
