<svg xmlns="http://www.w3.org/2000/svg" xmlns:xlink="http://www.w3.org/1999/xlink" width="14" height="14" viewBox="0 0 14 14">
    <defs>
        <path id="a" d="M659.649 51.507l3.124 3.155a.783.783 0 0 1-.01 1.112.797.797 0 0 1-1.12-.01l-3.122-3.151a5.947 5.947 0 0 1-3.577 1.187c-3.283 0-5.944-2.641-5.944-5.9 0-3.258 2.661-5.9 5.944-5.9s5.945 2.642 5.945 5.9c0 1.359-.463 2.61-1.24 3.607zm-4.705.72c2.408 0 4.36-1.937 4.36-4.327 0-2.39-1.952-4.327-4.36-4.327-2.407 0-4.359 1.938-4.359 4.327 0 2.39 1.952 4.327 4.36 4.327z"/>
    </defs>
    <use fill="#6E6E6E" fill-rule="evenodd" transform="translate(-649 -42)" xlink:href="#a"/>
</svg>