<svg width="22" height="22" viewBox="0 0 22 22" xmlns="http://www.w3.org/2000/svg">
    <g fill="#0F58C5" fill-rule="nonzero">
        <path d="M11 12.547c.268 0 .488.205.513.466l.003.05v6.874a.516.516 0 0 1-1.03.05l-.002-.05v-6.874c0-.285.231-.516.516-.516zm8.25-8.25c.285 0 .516.23.516.516v15.125a.516.516 0 0 1-1.032 0V4.813c0-.285.231-.516.516-.516zm-16.5-2.75c.268 0 .488.204.513.466l.003.05v15.124a.516.516 0 0 1-1.03.05l-.002-.05V2.063c0-.284.231-.515.516-.515zm8.25 0c.268 0 .488.204.513.466l.003.05v6.875a.516.516 0 0 1-1.03.05l-.002-.05V2.062c0-.284.231-.515.516-.515z"/>
        <path d="M2.75 21.828a2.578 2.578 0 1 0 0-5.156 2.578 2.578 0 0 0 0 5.156zm0-1.031a1.547 1.547 0 1 1 0-3.094 1.547 1.547 0 0 1 0 3.094zM19.25 5.328a2.578 2.578 0 1 0 0-5.156 2.578 2.578 0 0 0 0 5.156zm0-1.031a1.547 1.547 0 1 1 0-3.094 1.547 1.547 0 0 1 0 3.094zM11 13.578a2.578 2.578 0 1 0 0-5.156 2.578 2.578 0 0 0 0 5.156zm0-1.031a1.547 1.547 0 1 1 0-3.094 1.547 1.547 0 0 1 0 3.094z"/>
    </g>
</svg>
