<svg width="18" height="20" viewBox="0 0 18 20" xmlns="http://www.w3.org/2000/svg">
    <path d="M16.77 2.5h-4.348v-.656C12.422.825 11.602 0 10.59 0H6.801A1.838 1.838 0 0 0 4.97 1.844V2.5H.62A.623.623 0 0 0 0 3.125c0 .345.278.625.621.625h1.15l.869 14.125A2.18 2.18 0 0 0 4.752 20h7.888a2.18 2.18 0 0 0 2.143-2.125L15.62 3.75h1.15c.342 0 .62-.28.62-.625a.623.623 0 0 0-.62-.625zM6.211 1.844c0-.328.264-.594.59-.594h3.79a.588.588 0 0 1 .59.594V2.5H6.21v-.656zM6.242 17.5h-.03a.623.623 0 0 1-.622-.594L4.97 5.656A.624.624 0 0 1 5.559 5a.623.623 0 0 1 .652.594l.621 11.25a.627.627 0 0 1-.59.656zm3.075-.625a.623.623 0 0 1-.621.625.623.623 0 0 1-.621-.625V5.625c0-.345.278-.625.62-.625.344 0 .622.28.622.625v11.25zm2.484.031a.623.623 0 0 1-.62.594h-.032a.62.62 0 0 1-.59-.656l.621-11.25A.623.623 0 0 1 11.832 5a.624.624 0 0 1 .59.656l-.62 11.25z" fill="#5C6469" fill-rule="nonzero"/>
</svg>
