<svg xmlns="http://www.w3.org/2000/svg" width="904" height="648" viewBox="0 0 904 648">
    <g fill="none" fill-rule="evenodd" opacity=".2" transform="matrix(-1 0 0 1 904 0)">
        <path fill="#6C63FF" fill-rule="nonzero" d="M550 41h65v24h-65zM658 0h65v24h-65zM662 75h65v24h-65zM456 102h65v24h-65zM435 200h65v24h-65zM534 199h65v24h-65z" opacity=".3"/>
        <path stroke="#3F3D56" d="M658.472 12L615 52.825 663 87M550 52l-62 50M467 201l20.794-75L566 198.786"/>
        <path fill="#6C63FF" fill-rule="nonzero" d="M114 66h65v24h-65zM222 25h65v24h-65zM227 100h65v24h-65zM20 127h65v24H20zM0 225h65v24H0zM96 223h65v24H96z" opacity=".3"/>
        <path stroke="#3F3D56" d="M222.472 35L179 75.825 227 110M114 77l-62 50M32 226l20.794-75L131 223.786M291 110.5h74"/>
        <path fill="#6C63FF" fill-rule="nonzero" d="M331 100h76v24h-76z"/>
        <path stroke="#3F3D56" d="M407 110.5h49M331 110l-44-75"/>
        <ellipse cx="552.5" cy="569.5" fill="#F2F2F2" fill-rule="nonzero" rx="351.5" ry="78.5"/>
        <path fill="#47465A" fill-rule="nonzero" d="M714 313l-33.607 171h-7.275l-.8-1.263-2.318-3.662 29.102-159.742 4.418-1.88z"/>
        <path fill="#000" fill-rule="nonzero" d="M704 318l-31.65 166-2.35-3.678 29.52-160.435z" opacity=".1"/>
        <path fill="#47465A" fill-rule="nonzero" d="M768 545.483l-8.773 2.828-2.132.689-2.814-6.33L706 322.489l5.02-1.125L721.566 319z"/>
        <path fill="#000" fill-rule="nonzero" d="M759 548.307l-2.123.693-2.803-6.368L706 321.132l4.998-1.132z" opacity=".1"/>
        <path fill="#47465A" fill-rule="nonzero" d="M347 312l-7.464 222.877-8.554 1.981-.607.142-2.375-4.599 4.75-218.28 4.57-.678z"/>
        <path fill="#000" fill-rule="nonzero" d="M336 313l-6.8 223.858-.651.142-2.549-4.608 5.097-218.712z" opacity=".1"/>
        <path fill="#47465A" fill-rule="nonzero" d="M393 614.23l-9.223 1.593-1.033.177-2.83-6.02L335 318.48l1.294-.394 6.84-2.086z"/>
        <path fill="#000" fill-rule="nonzero" d="M383 615.824l-1.038.176-2.841-6.002L334 319.392l1.3-.392z" opacity=".1"/>
        <path fill="#7A799C" fill-rule="nonzero" d="M589 294.189l34.303 44.48c2.39 3.1 6.2 4.712 10.053 4.254l140.815-16.736c5.604-.666 9.829-5.485 9.829-11.211V282l-195 12.189z"/>
        <path fill="#47465A" fill-rule="nonzero" d="M703 301h10v14.315c0 2.035-1.664 3.685-3.716 3.685h-2.568c-2.052 0-3.716-1.65-3.716-3.685V301z"/>
        <path fill="#7A799C" fill-rule="nonzero" d="M335 323.189l34.303 44.48c2.39 3.1 6.2 4.712 10.053 4.254l140.815-16.736c5.604-.666 9.829-5.485 9.829-11.211V311l-195 12.189z"/>
        <path fill="#47465A" fill-rule="nonzero" d="M450 329h10v14.315c0 2.035-1.664 3.685-3.716 3.685h-2.568c-2.052 0-3.716-1.65-3.716-3.685V329z"/>
        <path fill="#47465A" fill-rule="nonzero" d="M375.343 344.725l419.205-48.966a6.172 6.172 0 0 0 5.357-5.062 6.187 6.187 0 0 0-3.297-6.6L721.62 246.28a86.586 86.586 0 0 0-47.801-8.831l-372.432 38.08a7.132 7.132 0 0 0-5.962 4.68 7.163 7.163 0 0 0 1.599 7.42l43.37 44.62a42.034 42.034 0 0 0 34.949 12.476zM839 289.45l-4.451-2.45s-4.806 3.523-8.72 18.362c-3.915 14.84 7.316.161 7.316.161l4.913-10.135.942-5.938zM792 427.456s-4.617 21.715-6.749 27.767c-1.044 2.961-6.088 5.67-11.678 7.742a78.056 78.056 0 0 1-15.316 4.005c-6.038.712-83.47-11.391-121.12-19.579-25.364-5.514-28.642-11.84-28.081-15.378a5.138 5.138 0 0 1 1.442-2.777s37.295-25.274 50.437-37.377c13.142-12.104 39.07-2.492 67.486 2.492C756.836 399.334 792 427.456 792 427.456z"/>
        <path fill="#47465A" fill-rule="nonzero" d="M834.615 287s17.237 11.298-40.805 34.6c0 0-31.548 17.852-27.441 91.394a20.222 20.222 0 0 0 2.92 9.34c5.99 9.886 18.822 34.91-2.566 38.017V466s38.695-19.418 42.916-36.012c4.222-16.594 18.292-108.741 25.328-117.215 7.035-8.473 11.608-21.89-.352-25.773z"/>
        <path fill="#000" fill-rule="nonzero" d="M773 461.079a79.38 79.38 0 0 1-15.263 3.892c-6.017.692-83.179-11.07-120.698-19.027-25.276-5.358-28.543-11.505-27.983-14.944 16.614 5.552 70.564 23.174 89.925 24.63 23.007 1.73 66.961 6.539 70.292 3.27 1.281-1.26 2.594.069 3.727 2.179z" opacity=".1"/>
        <path fill="#47465A" fill-rule="nonzero" d="M570 609l34.037-153.423s6.091-16.262 20.065-15.555L637 446.386s-21.497-4.95-26.155 11.312C606.187 473.959 576.449 609 576.449 609H570zM652 539l13.127-94H671l-13.473 94zM781.667 632L769 485.588s0-12.377 6.333-18.39c6.334-6.012 26.78-23.162 26.78-23.162s5.239-1.24 9.461 10.785C815.796 466.845 845 587.086 845 587.086l-5.63 2.476-36.24-138.631-24.982 23.694s-4.926 8.841-2.463 16.975c2.463 8.134 11.611 140.4 11.611 140.4h-5.63z"/>
        <path fill="#47465A" fill-rule="nonzero" d="M743 463l31.909 9 7.091-6.577L763.564 463z"/>
        <path fill="#7A799C" fill-rule="nonzero" d="M458.017 203.42l5.161 77.58L576 270.013l-4.49-75.837a7.633 7.633 0 0 0-2.614-5.314 7.601 7.601 0 0 0-5.622-1.835l-98.3 8.285c-4.138.35-7.233 3.957-6.957 8.108z"/>
        <path fill="#7A799C" fill-rule="nonzero" d="M614 293.226l-112.766 12.31-4.256.464L464 284.711v-4.613L576.056 270z"/>
        <path fill="#000" fill-rule="nonzero" d="M501 304.543l-4.229.457L464 284.062V280z" opacity=".1"/>
        <path fill="#9493B6" fill-rule="nonzero" d="M467 203.389L470.856 272 569 262.852 565.494 196z"/>
        <path fill="#000" fill-rule="nonzero" d="M525 291.094L537.16 299l36.84-3.438L561.481 288z" opacity=".1"/>
        <path fill="#9493B6" fill-rule="nonzero" d="M477 281.966L492.144 293 589 284.035 571.742 273z"/>
        <path fill="#FF6584" fill-rule="nonzero" d="M648 178h72v72h-72z"/>
        <path fill="#000" fill-rule="nonzero" d="M648 178h72v72h-72z" opacity=".1"/>
        <path fill="#FBBEBE" fill-rule="nonzero" d="M673.45 210.514s10.164 28.015 0 33.187c-10.164 5.172 36.421 0 36.421 0L723 232.926s-29.645-8.62-25.41-28.446c4.235-19.826-24.14 6.034-24.14 6.034z"/>
        <path fill="#000" fill-rule="nonzero" d="M673.45 210.514s10.164 28.015 0 33.187c-10.164 5.172 36.421 0 36.421 0L723 232.926s-29.645-8.62-25.41-28.446c4.235-19.826-24.14 6.034-24.14 6.034z" opacity=".1"/>
        <path fill="#FBBEBE" fill-rule="nonzero" d="M590 486.276s38.483 53.258 32.07 67.936c-6.415 14.677-2.994 23.903-15.822 28.935-12.827 5.033-16.248 14.259-5.13 13.84 11.117-.42 25.655-3.356 27.793-7.13 2.137-3.774 7.269-21.806 14.538-24.323 7.268-2.516 20.951-12.16 11.117-23.903-9.835-11.742-34.614-54.992-32.7-59.367 1.913-4.375-31.866 4.012-31.866 4.012z"/>
        <path fill="#9493B6" fill-rule="nonzero" d="M669.653 380s-78.49 5.068-98.744 24.073c-20.255 19.005 17.723 89.957 21.943 90.802 4.22.845 37.134-2.534 35.868-11.825-1.266-9.292-23.63-47.302-23.63-47.302s29.116-10.558 45.151-13.092c16.036-2.534 33.759-14.36 33.759-14.36L669.653 380z"/>
        <path fill="#FBBEBE" fill-rule="nonzero" d="M634 366.679s1.243 46.587 12.844 48.266c11.601 1.679 0-35.675 0-35.675L646.43 365 634 366.679z"/>
        <path fill="#6C63FF" fill-rule="nonzero" d="M669 245.16s-21.806-6.318-26 10.53c-4.194 16.85-5.452 74.977-5.452 74.977L630 377s13.839-4.212 16.774-2.106l17.613-22.324L669 245.16z"/>
        <path fill="#000" fill-rule="nonzero" d="M669 245.16s-21.806-6.318-26 10.53c-4.194 16.85-5.452 74.977-5.452 74.977L630 377s13.839-4.212 16.774-2.106l17.613-22.324L669 245.16z" opacity=".1"/>
        <path fill="#FBBEBE" fill-rule="nonzero" d="M699.415 495s14.62 29.244 23.404 28.818c8.785-.425 17.15-5.959 21.334 11.493 4.183 17.452-.837 12.77 4.183 22.985 5.02 10.216 5.857 28.094-3.765 32.35-9.62 4.257-18.406 4.682-18.824 0-.418-4.682 8.366-4.682-1.673-21.283-10.04-16.6-31.374-46.822-40.159-49.801-8.784-2.98 15.5-24.562 15.5-24.562z"/>
        <path fill="#9493B6" fill-rule="nonzero" d="M736.807 362s30.248 50.898 10.503 65.743c-19.746 14.845-78.561 43.263-78.561 43.263s31.508 21.631 33.189 28.842c1.68 7.21-15.124 26.721-21.006 27.145-5.882.424-23.106-19.51-41.591-24.6s-29.828-41.567-9.663-55.14c20.166-13.572 39.07-36.052 39.07-36.052l-5.877-32.655L736.807 362z"/>
        <path fill="#FBBEBE" fill-rule="nonzero" d="M712 194.213C712 212.162 693.57 227 675.578 227 657.585 227 643 212.45 643 194.5s14.585-32.5 32.578-32.5C693.57 162 712 176.263 712 194.213z"/>
        <path fill="#6C63FF" fill-rule="nonzero" d="M683.496 240.63s29.36-12.631 29.36-14.316c0-1.684 17.02 3.79 20.849 7.158 3.83 3.369 5.957 2.948 8.51 9.685 2.553 6.736-12.765 69.474-12.765 69.474s8.51 48.421 13.19 53.053c4.68 4.631-37.87 11.368-37.87 11.368s-28.083 5.053-32.763 7.158c-4.68 2.105-13.19 5.053-11.489 0 1.702-5.052 8.936-8.842-3.404-15.158 0 0 4.255-20.632 0-29.895-4.255-9.263-23.828-42.947-8.084-67.369 15.743-24.42 22.977-33.263 22.977-33.263s5.531 4.632 11.489 2.105z"/>
        <path fill="#FBBEBE" fill-rule="nonzero" d="M692.775 355s-33.23 14.612-43.241 15.964c-10.012 1.353-40.26 8.955-23.645 15.713 16.615 6.758 41.75-3.379 41.75-3.379L703 368.516 692.775 355z"/>
        <path fill="#000" fill-rule="nonzero" d="M728.692 240.769s12.265-5.85 15.672 14.724c3.407 20.574 15.33 85.657 0 95.314-15.33 9.657-50.676 25.193-50.676 25.193s-20.867-13.856-11.072-18.895c9.794-5.038 33.216-19.315 36.623-24.353 3.407-5.039 6.849-61.28.887-70.517-5.962-9.238 8.566-21.466 8.566-21.466z" opacity=".1"/>
        <path fill="#6C63FF" fill-rule="nonzero" d="M727.923 235.005s17.034-.844 20.441 19.84c3.407 20.685 15.33 86.117 0 95.827C733.034 360.38 697.688 376 697.688 376s-20.867-13.93-11.072-18.996c9.794-5.066 33.216-19.419 36.623-24.485 3.407-5.065-2.555-57.833-8.517-67.12-5.962-9.287 13.201-30.394 13.201-30.394z"/>
        <path fill="#FF6584" fill-rule="nonzero" d="M667.866 140.405c-5.126.703-10.625 2.592-13.204 7.109-1.263 2.21-1.67 4.803-2.643 7.157-2.684 6.497-9.2 10.377-13.905 15.578-6.132 6.779-9.177 16.994-5.56 25.41 1.4 3.259 3.674 6.05 5.398 9.148 4.812 8.64 5.068 19.018 5.205 28.924l.27 19.476c.04 2.974.073 6.009-.816 8.845-.89 2.836-2.874 5.493-5.69 6.388 6.392 2.232 13.473-.203 17.175-5.907A15.244 15.244 0 0 1 649.489 276c7.656-1.816 14.076-7.424 18.12-14.218 4.046-6.794 5.921-14.696 6.762-22.573.444-4.165.6-8.473-.706-12.45-.92-2.802-2.525-5.314-4.05-7.834-3.928-6.498-7.466-13.409-8.732-20.909-1.267-7.5.005-15.729 4.84-21.573a19.292 19.292 0 0 1 15.283-7.058c5.917.23 11.29 3.543 14.185 8.747 1.117 2.117 2.707 4.988 4.97 4.244.42-.18.829-.382 1.226-.607 2.524-1.157 5.392 1.126 6.505 3.685 3.51 8.07-2.958 16.879-3.626 25.663-.622 8.172 3.901 15.88 9.309 22.004a71.698 71.698 0 0 0 35.092 21.715 9.84 9.84 0 0 1-5.09-3.185A66.373 66.373 0 0 0 760 250.264c-5.876-4.46-11.793-8.957-16.698-14.48-4.906-5.522-8.791-12.205-9.85-19.538-1.419-9.841 2.22-20.499-1.94-29.517-3.805-8.245-13.24-12.853-16.685-21.256-3.5-8.536-5.768-15.952-15.034-19.668-10.114-4.055-21-6.897-31.927-5.4z"/>
    </g>
</svg>
