<svg width="15" height="19" viewBox="0 0 15 19" xmlns="http://www.w3.org/2000/svg">
    <g fill="#FFF" fill-rule="nonzero">
        <path d="M7.03.002h.006a.306.306 0 0 1 .192.099L7.207.08a.318.318 0 0 1 .02.02h.001l4.687 5.107a.324.324 0 0 1-.014.451.308.308 0 0 1-.441-.014L7.313 1.126v13.555c0 .164-.121.298-.277.317L7 15a.316.316 0 0 1-.312-.32V1.164L2.547 5.956a.308.308 0 0 1-.41.053l-.031-.025a.324.324 0 0 1-.028-.45L6.766.108A.325.325 0 0 1 6.89.02.311.311 0 0 1 7 0l.03.002z" stroke="black" stroke-width="1"/>
        <path d="M14.375 18.333H.625v-5c0-.184-.14-.333-.313-.333-.172 0-.312.15-.312.333v5.334c0 .184.14.333.313.333h14.374c.173 0 .313-.15.313-.333v-5.334c0-.184-.14-.333-.313-.333-.172 0-.312.15-.312.333v5z" stroke="black" stroke-width="1"/>
    </g>
</svg>
