<svg width="910" height="815" viewBox="0 0 910 815" xmlns="http://www.w3.org/2000/svg" xmlns:xlink="http://www.w3.org/1999/xlink">
    <defs>
        <ellipse id="a" cx="208.831" cy="208.822" rx="208.611" ry="208.528"/>
        <ellipse id="c" cx="83.532" cy="83.529" rx="83.444" ry="83.411"/>
        <ellipse id="e" cx="96.218" cy="96.429" rx="83.651" ry="83.682"/>
        <radialGradient cx="50%" cy="0%" fx="50%" fy="0%" r="100%" gradientTransform="matrix(0 1 -.89816 0 .5 -.5)" id="h">
            <stop stop-color="#FFF" offset="0%"/>
            <stop stop-color="#F7FFFF" offset="100%"/>
        </radialGradient>
        <linearGradient x1="16.881%" y1="5.988%" x2="100.596%" y2="79.344%" id="g">
            <stop stop-color="#004EC2" offset="0%"/>
            <stop stop-color="#A98AFF" offset="83%"/>
        </linearGradient>
    </defs>
    <g fill="none" fill-rule="evenodd">
        <g transform="translate(17.44 341.804)" opacity=".36">
            <mask id="b" fill="#fff">
                <use xlink:href="#a"/>
            </mask>
            <g mask="url(#b)" stroke="#004EC2">
                <path d="m264.847-111.785-577.05 576.813M287.808-111.785l-577.041 576.813M310.77-111.785l-577.041 576.813M333.73-111.785l-577.04 576.813M356.702-111.785l-577.05 576.813M379.663-111.785l-577.05 576.813M402.625-111.785l-577.041 576.813M425.586-111.785l-577.041 576.813M448.548-111.785l-577.042 576.813M471.518-111.785l-577.05 576.813M494.48-111.785-82.571 465.028M517.44-111.785-59.6 465.028M540.402-111.785-36.64 465.028M563.364-111.785-13.677 465.028M586.334-111.785 9.284 465.028M609.296-111.785 32.246 465.028M632.257-111.785 55.216 465.028M655.219-111.785 78.178 465.028M678.18-111.785 101.139 465.028M701.15-111.785 124.1 465.028M724.112-111.785l-577.05 576.813M747.073-111.785 170.032 465.028M770.035-111.785 192.994 465.028M792.996-111.785 215.955 465.028M815.967-111.785l-577.05 576.813M838.928-111.785l-577.05 576.813M861.89-111.785 284.849 465.028M884.85-111.785 307.81 465.028M907.813-111.785 330.77 465.028M930.783-111.785l-577.05 576.813M953.745-111.785 376.694 465.028M976.706-111.785 399.665 465.028M999.667-111.785 422.626 465.028M1022.629-111.785 445.588 465.028M1045.599-111.785l-577.05 576.813M1068.56-111.785 491.51 465.028M1091.522-111.785 514.48 465.028M1114.484-111.785 537.443 465.028M1137.445-111.785 560.404 465.028M1160.416-111.785 583.365 465.028M1183.377-111.785l-577.05 576.813M1206.339-111.785 629.297 465.028M1229.3-111.785 652.259 465.028"/>
            </g>
        </g>
        <g transform="translate(457.732)" opacity=".36">
            <mask id="d" fill="#fff">
                <use xlink:href="#c"/>
            </mask>
            <g mask="url(#d)" stroke="#004EC2">
                <path d="m105.939-44.714-230.82 230.725M115.123-44.714l-230.816 230.725M124.308-44.714-106.51 186.011M133.493-44.714-97.324 186.011M142.68-44.714-88.14 186.011M151.865-44.714l-230.82 230.725M161.05-44.714-69.767 186.011M170.234-44.714-60.582 186.011M179.419-44.714-51.397 186.011M188.607-44.714l-230.82 230.725M197.792-44.714l-230.82 230.725M206.976-44.714-23.84 186.011M216.16-44.714-14.654 186.011M225.346-44.714-5.471 186.011M234.534-44.714 3.714 186.011M243.718-44.714 12.898 186.011M252.903-44.714 22.086 186.011M262.087-44.714 31.27 186.011M271.272-44.714 40.456 186.011M280.46-44.714 49.64 186.011M289.645-44.714 58.825 186.011M298.829-44.714 68.013 186.011M308.014-44.714 77.198 186.011M317.199-44.714 86.382 186.011M326.387-44.714 95.567 186.011M335.57-44.714 104.75 186.011M344.756-44.714 113.939 186.011M353.94-44.714 123.124 186.011M363.125-44.714 132.309 186.011M372.313-44.714l-230.82 230.725M381.498-44.714l-230.82 230.725M390.682-44.714 159.866 186.011M399.867-44.714 169.05 186.011M409.052-44.714 178.235 186.011M418.24-44.714 187.42 186.011M427.424-44.714l-230.82 230.725M436.609-44.714 205.792 186.011M445.793-44.714 214.977 186.011M454.978-44.714 224.162 186.011M464.166-44.714l-230.82 230.725M473.35-44.714 242.53 186.011M482.535-44.714 251.719 186.011M491.72-44.714 260.904 186.011"/>
            </g>
        </g>
        <g transform="translate(302.389 28.484)" opacity=".46">
            <mask id="f" fill="#fff">
                <use xlink:href="#e"/>
            </mask>
            <g mask="url(#f)" stroke="#004EC2">
                <path d="M203.123-65.834-65.272 202.463M213.804-65.834-54.59 202.463M224.485-65.834-43.91 202.463M235.166-65.834-33.229 202.463M245.847-65.834-22.548 202.463M256.528-65.834-11.867 202.463M267.21-65.834-1.187 202.463M277.89-65.834 9.495 202.463M288.571-65.834 20.176 202.463M299.252-65.834 30.857 202.463M309.933-65.834 41.538 202.463M320.614-65.834 52.22 202.463M331.295-65.834 62.9 202.463M341.976-65.834 73.572 202.463M352.657-65.834 84.253 202.463M363.338-65.834 94.934 202.463M374.02-65.834 105.614 202.463M384.7-65.834 116.296 202.463M395.381-65.834 126.977 202.463M406.062-65.834 137.658 202.463M416.743-65.834 148.34 202.463M427.424-65.834 159.02 202.463M438.105-65.834 169.701 202.463M448.786-65.834 180.382 202.463M459.458-65.834 191.063 202.463M470.14-65.834 201.743 202.463M480.82-65.834 212.425 202.463M491.501-65.834 223.106 202.463M502.182-65.834 233.787 202.463M512.863-65.834 244.468 202.463M523.544-65.834 255.15 202.463M534.225-65.834 265.83 202.463M544.906-65.834 276.511 202.463M555.587-65.834 287.192 202.463M566.268-65.834 297.873 202.463M576.95-65.834 308.553 202.463M587.63-65.834 319.235 202.463M598.311-65.834 329.916 202.463M608.992-65.834 340.597 202.463M619.673-65.834 351.278 202.463M630.354-65.834 361.96 202.463M641.035-65.834 372.64 202.463M651.716-65.834 383.321 202.463"/>
            </g>
        </g>
        <g opacity=".33" fill="#004EC2" fill-rule="nonzero">
            <path d="M879.614 343.926a3.392 3.392 0 0 1-2.395-5.79 3.393 3.393 0 0 1 4.793 4.803c-.637.635-1.5.99-2.398.987zM879.614 373.42a3.392 3.392 0 0 1-2.399-5.787 3.393 3.393 0 0 1 5.79 2.397 3.391 3.391 0 0 1-3.391 3.39zM879.614 402.823a3.392 3.392 0 0 1-2.395-5.791 3.393 3.393 0 0 1 4.793 4.804c-.637.634-1.5.99-2.398.987zM879.614 432.226a3.391 3.391 0 1 1-.002-6.783 3.391 3.391 0 0 1 .002 6.783zM879.614 461.702a3.392 3.392 0 0 1-2.395-5.792 3.393 3.393 0 0 1 4.793 4.805c-.637.634-1.5.99-2.398.987zM879.614 491.15a3.391 3.391 0 1 1-.002-6.782 3.391 3.391 0 0 1 .002 6.782zM850.273 343.926a3.392 3.392 0 0 1-2.407-5.788 3.393 3.393 0 0 1 5.79 2.407 3.391 3.391 0 0 1-3.383 3.381zM850.273 373.42a3.392 3.392 0 0 1-2.41-5.784 3.393 3.393 0 0 1 5.793 2.394 3.391 3.391 0 0 1-3.383 3.39zM850.273 402.823a3.392 3.392 0 0 1-2.407-5.788 3.393 3.393 0 0 1 5.79 2.407 3.391 3.391 0 0 1-3.383 3.381zM850.273 432.226a3.392 3.392 0 0 1-2.41-5.785 3.393 3.393 0 0 1 5.793 2.394 3.391 3.391 0 0 1-3.383 3.39zM850.273 461.702a3.392 3.392 0 0 1-2.407-5.788 3.393 3.393 0 0 1 5.79 2.406 3.391 3.391 0 0 1-3.383 3.382zM850.273 491.15a3.392 3.392 0 0 1-2.41-5.785 3.393 3.393 0 0 1 5.793 2.395 3.391 3.391 0 0 1-3.383 3.39zM820.896 343.926a3.392 3.392 0 0 1-2.408-5.788 3.393 3.393 0 0 1 5.79 2.407 3.382 3.382 0 0 1-3.382 3.381zM820.896 373.42a3.392 3.392 0 0 1-2.411-5.784 3.393 3.393 0 0 1 5.793 2.394 3.391 3.391 0 0 1-3.382 3.39zM820.896 402.823a3.392 3.392 0 0 1-2.408-5.788 3.393 3.393 0 0 1 5.79 2.407 3.382 3.382 0 0 1-3.382 3.381zM820.896 432.226a3.392 3.392 0 0 1-2.411-5.785 3.393 3.393 0 0 1 5.793 2.394 3.391 3.391 0 0 1-3.382 3.39zM820.896 461.702a3.392 3.392 0 0 1-2.408-5.788 3.393 3.393 0 0 1 5.79 2.406 3.382 3.382 0 0 1-3.382 3.382zM820.896 491.15a3.392 3.392 0 0 1-2.411-5.785 3.393 3.393 0 0 1 5.793 2.395 3.391 3.391 0 0 1-3.382 3.39zM791.518 343.926a3.392 3.392 0 0 1-2.395-5.79 3.393 3.393 0 0 1 4.793 4.803c-.636.635-1.499.99-2.398.987zM791.518 373.42a3.392 3.392 0 0 1-2.398-5.787 3.393 3.393 0 0 1 5.79 2.397 3.391 3.391 0 0 1-3.392 3.39zM791.518 402.823a3.392 3.392 0 0 1-2.395-5.791 3.393 3.393 0 0 1 4.793 4.804c-.636.634-1.499.99-2.398.987zM791.518 432.226a3.391 3.391 0 1 1-.001-6.783 3.391 3.391 0 0 1 .001 6.783zM791.518 461.702a3.392 3.392 0 0 1-2.395-5.792 3.393 3.393 0 0 1 4.793 4.805c-.636.634-1.499.99-2.398.987zM791.518 491.15a3.391 3.391 0 1 1-.001-6.782 3.391 3.391 0 0 1 .001 6.782zM762.15 343.926a3.392 3.392 0 0 1-2.407-5.788 3.393 3.393 0 0 1 5.79 2.407 3.391 3.391 0 0 1-3.383 3.381zM762.15 373.42a3.392 3.392 0 0 1-2.41-5.784 3.393 3.393 0 0 1 5.793 2.394 3.391 3.391 0 0 1-3.383 3.39zM762.15 402.823a3.392 3.392 0 0 1-2.407-5.788 3.393 3.393 0 0 1 5.79 2.407 3.391 3.391 0 0 1-3.383 3.381zM762.15 432.226a3.392 3.392 0 0 1-2.41-5.785 3.393 3.393 0 0 1 5.793 2.394 3.391 3.391 0 0 1-3.383 3.39zM762.15 461.702a3.392 3.392 0 0 1-2.407-5.788 3.393 3.393 0 0 1 5.79 2.406 3.391 3.391 0 0 1-3.383 3.382zM762.15 491.15a3.392 3.392 0 0 1-2.41-5.785 3.393 3.393 0 0 1 5.793 2.395 3.391 3.391 0 0 1-3.383 3.39z"/>
        </g>
        <path d="M127.485 508.167c94.373 45.877 176.669 38.793 190.19 10.833 14.597-30.193-149.58-220.648-214.043-183.82-64.463 36.826-56.484 133.937 23.853 172.987z" fill="#004EC2" fill-rule="nonzero" opacity=".31"/>
        <path d="M791.969 571.887C900.847 709.372 749.51 836.161 635.31 811.701c-156.768-33.62-155.546-202.693-292.772-230.9-137.226-28.209-396.76-231.417-332.48-407.372C74.336-2.527 262.33 194.433 382.228 49.259c62.138-75.243 151.52 83.714 207.48 38.875C693.58 4.87 775.58-16.77 854.346 65.07c120.865 125.577-34.552 298.73-99.86 346.6-91.304 66.928 7.674 122.545 37.484 160.216z" fill="#004EC2" fill-rule="nonzero" opacity=".31"/>
        <path d="M180.807 431.004c-91.1-66.358-154.24-46.86-165.454-163.028C-4.65 61.663 159.353.753 293.987 39.601 394.924 68.728 500.18 112.07 577.098 82.19 709.838 30.643 832.726 1.13 884.853 61.8c61.816 71.935-4.348 182.195-52.78 263.704-49.839 83.898-21.527 156.733 6.26 246.439C874.917 690.058 739.813 811.7 627.957 791.8c-162.853-28.907-183.902-191.888-331.304-215.42-111.801-17.852-77.02-117.104-115.846-145.376z" fill-opacity=".8" fill="#004EC2" fill-rule="nonzero" opacity=".31"/>
        <path d="M596.061 100.667c107.27-34.622 223.511-75.895 273.993 29.402 50.482 105.298-99.548 161.163-72.092 298.481 27.456 137.32 58.424 328.885-128.687 338.248-187.11 9.363-154.58-154.877-335.036-208.693C90.065 485.242-20.45 321.048 52.047 151.901 120.692-8.315 319.826-33.932 424.07 38.7c92.876 64.713 126.288 76.722 171.99 61.966z" fill="url(#g)" fill-rule="nonzero"/>
        <path d="M587.917 117.068c101.02-32.6 205.9-71.007 253.477 28.143 47.577 99.151-80.172 156.201-54.315 285.563 25.856 129.362 47.494 293.804-128.807 302.616-176.3 8.811-150.15-125.246-316.928-185.603C126.795 470.192 22.118 333.773 90.395 174.43 155.042 23.577 334.184 4.447 425.947 58.658c91.762 54.21 118.934 72.284 161.97 58.41z" fill="url(#h)" fill-rule="nonzero"/>
        <g transform="translate(200 140.574)">
            <path d="M530.752 264.6c-7.665-27.501 16.702-28.565 17.238-64 .219-14.494-7.72-29.256-26.821-36.027-9.388-3.327-18.745-5.614-27.099-10.905-19.034-12.059-18.69-35-23.882-54.56-11.405-42.958-55.294-77.084-99.72-75.975-32.026.8-60.98 1.782-90.178 28.97-19.978 18.605-32.963 41.49-51.51 60.672-19.643 20.31-43.579 30.053-70.457 36.578-25.42 6.175-53.07 13.514-72.524 32.02-18.283 17.39-15.618 35.578-7.78 56.93 8.643 23.545-10.099 39.567-29.644 48.735-16.455 7.72-38.36 7.048-46 25.52-8.284 20.024 16.322 20.367 39.202 20.367s319.127-1.76 401.926.69c22.286.658 93.39 6.73 103.448-21.057 6.848-18.913-10.844-28.75-16.199-47.957z" opacity=".35" fill="#C3ECFE" fill-rule="nonzero"/>
            <path d="M556 256c-16.613 38.52-48.626 69.955-87 87" stroke="#C3ECFE" stroke-width="1.056"/>
            <path d="M551 265.994a31.465 31.465 0 0 0 10.827-19.033c.287-1.805.346-3.861-.867-5.226a2.051 2.051 0 0 0-1.274-.735c-.82.03-1.58.444-2.051 1.116-2.85 3.205-3.837 7.637-4.327 11.9-.49 4.261-1.422 7.387-2.306 11.984M542.842 279c3.194-6.873 3.997-14.754 2.264-22.212-.428-1.808-1.147-3.758-2.714-4.547a1.808 1.808 0 0 0-1.382-.175c-.701.36-1.205 1.054-1.363 1.875-1.273 4.156-.47 8.708.703 12.899 1.172 4.19 1.536 7.5 2.492 12.16M531.725 295c4.176-6.402 5.963-14.121 5.036-21.754-.232-1.851-.753-3.883-2.303-4.873a2.012 2.012 0 0 0-1.429-.356 2.649 2.649 0 0 0-1.655 1.682c-1.834 3.958-1.536 8.585-.807 12.898.73 4.312.714 7.645 1.158 12.401M518.725 309c4.176-6.402 5.963-14.121 5.036-21.754-.232-1.85-.754-3.882-2.302-4.872a2.02 2.02 0 0 0-1.43-.357 2.652 2.652 0 0 0-1.655 1.683c-1.834 3.957-1.536 8.585-.807 12.897.73 4.313.714 7.645 1.158 12.401M499 324.998c4.655-5.77 7.137-13.061 6.994-20.549-.04-1.816-.345-3.837-1.74-4.956a1.953 1.953 0 0 0-1.345-.492 2.556 2.556 0 0 0-1.76 1.46c-2.157 3.645-2.325 8.156-2.046 12.41.278 4.253-.063 7.477-.103 12.129M483.005 336c5.172-5.574 8.305-12.612 8.925-20.046.168-1.858.112-3.957-1.075-5.277a1.822 1.822 0 0 0-1.21-.676c-.743-.034-1.361.612-1.827 1.26-2.445 3.438-3.117 8.014-3.339 12.387-.222 4.372-.91 7.614-1.479 12.352M539 284.606c7.98 1.183 16.141-.316 23.097-4.24 1.71-.962 3.48-2.263 3.842-4.077a1.897 1.897 0 0 0-.208-1.448 2.746 2.746 0 0 0-2.277-.826c-4.559-.064-8.94 2.083-12.85 4.5s-7.154 3.755-11.604 6.088M530 297.336a34.107 34.107 0 0 0 23.097 1.2c1.87-.563 3.88-1.453 4.67-3.191a2.062 2.062 0 0 0 .156-1.507 2.635 2.635 0 0 0-1.971-1.369c-4.338-1.144-9.048-.019-13.376 1.486-4.328 1.506-7.753 2.085-12.576 3.381M516 311.153a34.596 34.596 0 0 0 22.346 5.709c1.938-.172 4.08-.628 5.197-2.139.328-.397.49-.903.451-1.414-.112-.796-.903-1.333-1.657-1.705-4.014-1.949-8.842-1.803-13.37-1.218-4.53.586-7.993.469-12.966.76M496 327.687a35.142 35.142 0 0 0 23.178.664c1.86-.59 3.856-1.5 4.61-3.21.231-.457.275-.983.123-1.47a2.645 2.645 0 0 0-2.007-1.293c-4.374-1.02-9.07.179-13.371 1.74-4.302 1.56-7.725 2.198-12.53 3.566M481.003 337c5.363 5.806 12.629 9.63 20.563 10.82 1.95.293 4.169.36 5.641-.836.42-.305.704-.756.793-1.259a2.575 2.575 0 0 0-1.21-2.038c-3.465-2.84-8.25-3.842-12.851-4.347-4.6-.505-7.976-1.443-12.939-2.34" fill="#C3ECFE" fill-rule="nonzero"/>
            <path d="M462.556 175a.423.423 0 0 1-.398-.389l-.15-2.106a.42.42 0 0 1 .164-.422.428.428 0 0 1 .456-.032.42.42 0 0 1 .221.395l.15 2.106a.422.422 0 0 1-.443.447z" fill="#599FD2" fill-rule="nonzero"/>
            <path fill="#C3ECFE" fill-rule="nonzero" d="m471 267.619-5.207.381L460 180.381l2.604-.19 2.603-.191z"/>
            <path fill="#C3ECFE" fill-rule="nonzero" d="m462.538 174-1.01.072L460 181l5-.357z"/>
            <path d="M164 195c9.724 52.806 46.77 99.889 96 122" stroke="#C3ECFE" stroke-width="1.056"/>
            <path d="M167.32 206.996c-4.507-6.165-6.728-13.8-6.258-21.517.12-1.872.519-3.939 1.993-5.028a1.977 1.977 0 0 1 1.395-.446 2.63 2.63 0 0 1 1.735 1.585c2.047 3.855 2.024 8.518 1.555 12.893-.469 4.375-.258 7.716-.42 12.517M171.928 221a31.787 31.787 0 0 1 2.589-22.157c.858-1.656 2.06-3.381 3.897-3.773a2.12 2.12 0 0 1 1.504.162 2.662 2.662 0 0 1 1.023 2.152c.42 4.35-1.457 8.587-3.641 12.382-2.184 3.796-3.312 6.925-5.372 11.234M179.992 239a31.832 31.832 0 0 1-.154-21.743c.612-1.703 1.54-3.514 3.22-4.11a1.958 1.958 0 0 1 1.43-.022 2.611 2.611 0 0 1 1.213 1.961c.9 4.16-.367 8.48-1.976 12.41-1.609 3.93-2.304 7.092-3.735 11.504M188.995 256a31.825 31.825 0 0 1-.16-21.743c.614-1.703 1.542-3.514 3.223-4.11a1.958 1.958 0 0 1 1.43-.022 2.611 2.611 0 0 1 1.213 1.961c.899 4.16-.366 8.48-1.976 12.41-1.61 3.93-2.305 7.092-3.736 11.504M205.182 275.998c-3.208-6.866-4.023-14.746-2.297-22.206.425-1.808 1.143-3.758 2.71-4.55a1.817 1.817 0 0 1 1.384-.177c.703.36 1.208 1.052 1.367 1.873 1.28 4.153.482 8.707-.687 12.897-1.168 4.191-1.527 7.5-2.477 12.165M218.038 290a33.766 33.766 0 0 1-3.694-20.83c.246-1.794.743-3.77 2.084-4.774.34-.291.78-.431 1.223-.388.671.121 1.085.861 1.36 1.571 1.45 3.762 1.074 8.234.34 12.42-.733 4.186-.808 7.398-1.313 12.001M174 227a34.652 34.652 0 0 1-21.239-9.243c-1.422-1.33-2.827-3.008-2.759-4.89a2.001 2.001 0 0 1 .534-1.396 2.667 2.667 0 0 1 2.38-.327c4.398.928 8.118 4.018 11.324 7.273 3.206 3.256 6.016 5.29 9.76 8.58M181 241.506a35.1 35.1 0 0 1-23.042-3.99c-1.716-.962-3.497-2.27-3.89-4.129a2.012 2.012 0 0 1 .183-1.49 2.68 2.68 0 0 1 2.248-.886c4.533-.139 8.925 2 12.855 4.42 3.93 2.42 7.178 3.745 11.644 6.075M191 258.704a35.191 35.191 0 0 1-23.182.636c-1.86-.591-3.854-1.502-4.606-3.212a1.946 1.946 0 0 1-.122-1.468 2.646 2.646 0 0 1 2.009-1.286c4.375-1.014 9.07.19 13.373 1.753 4.303 1.564 7.724 2.205 12.528 3.577M206 278.64a34.246 34.246 0 0 1-22.262-4.329c-1.643-.962-3.345-2.26-3.683-4.058a1.92 1.92 0 0 1 .21-1.432 2.612 2.612 0 0 1 2.203-.804c4.398-.038 8.613 2.114 12.372 4.528 3.759 2.415 6.88 3.757 11.16 6.095M219.997 291.82c-6.485 4.5-14.354 6.653-22.27 6.093-1.945-.136-4.099-.551-5.247-2.037a1.97 1.97 0 0 1-.477-1.4c.098-.796.876-1.344 1.627-1.725 3.983-2.022 8.822-1.957 13.369-1.456 4.547.5 8.012.324 13.001.522" fill="#C3ECFE" fill-rule="nonzero"/>
            <path d="M69 269.163c53.509-2.456 107.538 22.95 140 65.837" stroke="#C3ECFE" stroke-width="1.056"/>
            <path d="M81 268.858a31.782 31.782 0 0 0-22.37-1.498c-1.79.549-3.711 1.426-4.43 3.178a2.16 2.16 0 0 0-.11 1.527 2.688 2.688 0 0 0 1.944 1.412c4.226 1.213 8.75.13 12.895-1.343 4.144-1.473 7.44-2.019 12.07-3.275M95.996 270.003c-7.73-.104-15.24 2.532-21.166 7.429-1.432 1.193-2.856 2.727-2.829 4.58-.016.513.16 1.014.496 1.405.659.521 1.527.706 2.346.501 4.362-.571 8.1-3.314 11.336-6.256 3.235-2.943 6.054-4.723 9.821-7.662M115 273.306c-7.56-1.073-15.24.7-21.643 4.997-1.55 1.048-3.132 2.452-3.332 4.358-.08.526.033 1.064.314 1.51a2.604 2.604 0 0 0 2.233.807c4.343-.042 8.34-2.398 11.87-5.019 3.529-2.62 6.509-4.102 10.558-6.653M134 279.306c-7.56-1.073-15.239.7-21.643 4.997-1.55 1.048-3.132 2.452-3.332 4.358a2.21 2.21 0 0 0 .314 1.51c.581.616 1.407.915 2.233.807 4.343-.042 8.34-2.398 11.87-5.019 3.53-2.62 6.508-4.102 10.558-6.653M157 289.926a31.801 31.801 0 0 0-22.158 2.593c-1.656.86-3.38 2.06-3.772 3.897a2.119 2.119 0 0 0 .162 1.503 2.662 2.662 0 0 0 2.153 1.022c4.35.42 8.587-1.458 12.382-3.643 3.796-2.185 6.925-3.311 11.23-5.37M173 299.28a33.92 33.92 0 0 0-21.554 1.04c-1.725.66-3.572 1.614-4.257 3.198-.21.411-.247.889-.101 1.326.277.65 1.109.899 1.877 1.013 4.075.605 8.43-.8 12.418-2.5 3.988-1.701 7.162-2.514 11.617-4.078M103 270.998c-2.365-7.5-7.325-13.973-14.037-18.315-1.648-1.068-3.64-2.041-5.501-1.554-.515.107-.97.402-1.268.824-.32.775-.24 1.652.217 2.359 1.922 4.014 5.849 6.892 9.819 9.24 3.97 2.35 6.638 4.591 10.768 7.448M118 274c-.457-7.887-3.679-15.376-9.12-21.193-1.333-1.43-3.026-2.847-4.948-2.806a2.07 2.07 0 0 0-1.43.509 2.583 2.583 0 0 0-.366 2.354c.88 4.376 3.98 8.109 7.252 11.334 3.273 3.225 5.31 6.043 8.612 9.802M136.656 279.998c1.097-7.718-.448-15.587-4.374-22.27-.963-1.642-2.259-3.34-4.049-3.674a1.904 1.904 0 0 0-1.425.215 2.623 2.623 0 0 0-.79 2.206c-.026 4.404 2.131 8.615 4.543 12.372 2.411 3.757 3.76 6.873 6.099 11.153M159.998 291c-.615-7.978-3.904-15.492-9.308-21.264-1.326-1.418-2.998-2.816-4.861-2.732a1.968 1.968 0 0 0-1.375.546 2.713 2.713 0 0 0-.304 2.393c.952 4.413 4.038 8.125 7.28 11.32 3.243 3.194 5.283 6.003 8.57 9.737M175.445 301a34.405 34.405 0 0 0 1.036-23.122c-.572-1.866-1.468-3.872-3.2-4.651a2.028 2.028 0 0 0-1.495-.147 2.636 2.636 0 0 0-1.346 1.981c-1.106 4.348.042 9.054 1.565 13.375 1.522 4.321 2.12 7.744 3.44 12.562" fill="#C3ECFE" fill-rule="nonzero"/>
            <path d="M238.692 292.011c-7.931-7.274-18.604-10.853-29.352-9.843-7.174.72-14.998 4.527-16.576 11.514-.752 3.328-.489 7.742-3.66 9.05-3.104 1.28-6.103-1.896-9.29-2.957-5.304-1.768-11.356 4.255-9.567 9.52.813 2.394 2.853 4.48 2.684 7.001-.231 3.431-4.504 5.223-7.927 4.69-3.422-.532-6.444-2.518-9.801-3.366-3.357-.848-7.706 0-8.884 3.236-1.056 2.9.767 6.797-1.526 8.876-.987.892-2.404 1.076-3.729 1.2-29.071 2.741-61.088 7.925-57.835 13.05.89 1.402 3.163.956 4.83.93 61.878-.961 118.085-1.879 179.941.006" fill="#C3ECFE" fill-rule="nonzero"/>
            <path d="M246 173.899C241.687 186.215 228.878 200 214.252 200c-16.605 0-20.658-13.518-25.5-17.794-11.91-10.515-19.357-12.963-34.514-15.559-9.862-1.69-20.407-15.586-17.85-29.38 4.66-25.155 49.835-37.147 61.273-55.55 9.32-14.996 8.83-23.957 25.135-34.717" stroke="#A1DBFF" stroke-width="1.056" stroke-dasharray="2.641"/>
            <path fill="#88D2FF" fill-rule="nonzero" d="M444.786 194 463 266.108l-3.465.892L437 196.005"/>
            <path d="M428.3 196.546c-9.483 2.388-19.578-4.88-22.5-16.209-2.923-11.328 2.415-22.491 11.9-24.882 9.486-2.391 19.579 4.88 22.5 16.21 2.922 11.328-2.413 22.49-11.9 24.881zm-8.975-34.79c-5.97 1.504-9.18 9.12-7.153 16.974 2.026 7.855 8.534 13.022 14.503 11.517 5.97-1.506 9.18-9.12 7.153-16.976-2.026-7.854-8.533-13.02-14.503-11.516z" fill="#9BDFFF" fill-rule="nonzero"/>
            <path d="m438.25 176.06 5.685 21.428c.285 1.077-.39 2.172-1.51 2.449-1.12.275-2.26-.374-2.548-1.45l-.642-2.418s-2.985-6.121-11.235-3.598c0 0 9.844-1.181 10.179-1.159.334.023-.24-16.421.07-15.253z" fill="#C0EDFF" fill-rule="nonzero"/>
            <path d="M442.915 203.837c-2.904.713-5.857-.98-6.601-3.786a8.263 8.263 0 0 0-1.027-2.643c-1.074-1.473-3.265-2.026-7.272-1.04L427 190.9c2.105-.651 3.621-1.633 5.316-1.52.907-.106 1.662-.194 2.293-.265a497.71 497.71 0 0 0-.067-5.578c-.026-1.8 2.39-3.824 2.385-5.116-.01-2.318-2.47-4.662.505-5.044l2.93-.377 6.47 24.461c.736 2.805-1.016 5.657-3.917 6.376z" fill="#9BDFFF" fill-rule="nonzero"/>
            <path fill="#88D2FF" fill-rule="nonzero" d="m448 194.006.054 73.994 3.56-.002L456 194"/>
            <path d="M447 170.011c-.008-11.579 7.836-21.004 17.484-21.011 9.65-.007 17.509 9.409 17.516 20.988.007 11.579-7.836 21.005-17.484 21.012-9.65.007-17.508-9.41-17.516-20.989zm6.487-.004c.005 8.028 4.953 14.557 11.027 14.553 6.074-.004 11.012-6.541 11.003-14.569-.01-8.028-4.953-14.557-11.028-14.552-6.074.005-11.011 6.54-11.006 14.568h.004z" fill="#9BDFFF" fill-rule="nonzero"/>
            <path d="m450 174.067.017 22.851c0 1.15.927 2.082 2.07 2.082 1.144 0 2.071-.932 2.071-2.082v-2.582s1.3-6.862 9.842-6.367c0 0-9.724 1.24-10.038 1.345-.314.106-3.963-16.494-3.962-15.247z" fill="#C0EDFF" fill-rule="nonzero"/>
            <path d="M452.452 202c3.003-.005 5.436-2.364 5.436-5.273-.058-.951.05-1.905.32-2.82.663-1.692 2.648-2.758 6.792-2.762l-.422-5.568c-2.213-.128-3.936-.718-5.552-.199-.909.114-1.663.21-2.295.293-.422-1.635-.96-3.792-1.369-5.447-.437-1.757-3.304-3.145-3.629-4.405-.59-2.26 1.2-5.133-1.79-4.791l-2.943.338.007 25.368c.005 2.91 2.441 5.266 5.445 5.266z" fill="#9BDFFF" fill-rule="nonzero"/>
            <path d="M352.35 89c.091-.332.191-.665.3-1" stroke="#A1DBFF" stroke-width="1.056"/>
            <path d="M353 86.312c4.495-13.764 19.417-28.518 42.51-23.2 16.004 3.685 20.257 18.76 28.848 28.45 6.365 7.179 15.412 13.075 18.378 23.221 6.839 23.402-2.471 48.745-19.12 56.706-9.592 4.588-33.94 2.295-45.274-2.122" stroke="#A1DBFF" stroke-width="1.056" stroke-dasharray="2.659"/>
            <path d="M378 168.775a24.168 24.168 0 0 1-1-.55" stroke="#A1DBFF" stroke-width="1.056"/>
            <path d="m485.333 171.963 7.443 1.344c.523.095.87.595.775 1.117l-14.545 80.536-9.336-1.686 14.545-80.535a.962.962 0 0 1 1.118-.776z" fill="#88D2FF" fill-rule="nonzero"/>
            <path d="m485.332 171.964 7.443 1.344c.523.095.87.595.776 1.118l-1.438 7.96-9.337-1.685 1.438-7.961a.962.962 0 0 1 1.118-.776z" fill="#FE7D90" fill-rule="nonzero"/>
            <path d="m482.192 183.882.52-2.832 9.603 1.708-.52 2.833z" opacity=".5" fill="#599FD2" fill-rule="nonzero"/>
            <path fill="#C3ECFE" fill-rule="nonzero" d="m503.566 184.95 15.237 6.005-32.493 82.425-15.237-6.004z"/>
            <path stroke="#CCF3FF" stroke-width="1.056" d="m513 192 5 2M511 196l5 2M509 200l5 2M505 204l7 3M506 209l5 2M504 213l5 2M503 217l5 2M499 221l7 3M499 226l5 2M498 230l5 2M496 234l5 2M492 238l7 3M492 243l5 2M491 247l5 2M489 252l5 2M485 255l7 3M486 260l5 2M484 264l5 2M482 269l5 2"/>
            <path d="M497.164 349h-76.33l-12.819-115.254a2.48 2.48 0 0 1 2.463-2.746h97.043c.705 0 1.377.3 1.847.824s.694 1.223.617 1.922L497.165 349z" fill="#9BDFFF" fill-rule="nonzero"/>
            <path d="M402.23 353.141 539.21 355c1.533.02 6.363-1.472-1.96-6.814-7.05-4.527-29.329-.455-29.329-.455s5.186-2.07 5.162-4.742c-.024-2.67-2.058-5.021-4.5-6.132-2.44-1.11-5.222-1.19-7.901-1.036a50.536 50.536 0 0 0-15.917 3.547 4.592 4.592 0 0 0 2.184-4.254 4.598 4.598 0 0 0-2.788-3.888 4.63 4.63 0 0 0-4.748.678c3.422-4.617 8.712-25.075-7.551-34.094-20.381-11.3-35.859-2-39.16 4.8-1.676-6.675-9.366-11.73-14.431-12.983-11.552-2.857-19.076-2.01-29.86 3.007-3.816 1.774-8.923 7.836-11.46 11.184-3.972 5.242-4.59 12.215-4.81 18.78a256.743 256.743 0 0 0-.066 14.79" fill="#CCF3FF" fill-rule="nonzero"/>
            <path d="M429 360.5c0 2.485-46.115 4.5-103 4.5s-103-2.015-103-4.5 46.115-4.5 103-4.5 103 2.015 103 4.5z" fill="#E9E8EE" fill-rule="nonzero"/>
            <path d="M327.5 61c-5.799 0-10.5 4.709-10.5 10.517V85h21V71.517c0-2.789-1.106-5.464-3.075-7.437A10.491 10.491 0 0 0 327.5 61zm0 16.554a5.896 5.896 0 0 1-5.89-5.901c0-3.259 2.637-5.9 5.89-5.9a5.896 5.896 0 0 1 5.89 5.9c0 3.259-2.637 5.9-5.89 5.9z" fill="#E8505B" fill-rule="nonzero"/>
            <path d="M333.873 71.465c0-1.547-.6-3.03-1.667-4.123a5.622 5.622 0 0 0-4.024-1.708 5.5 5.5 0 0 0-.855.088 4.092 4.092 0 0 1 2.31-.567c3.142 0 5.69 2.611 5.69 5.831 0 2.921-1.453 4.503-3.65 5.081a6.432 6.432 0 0 0 2.196-4.602zm-12.736 11.857V69.998c-.104-3.44 1.501-6.7 4.265-8.658-4.357 1.27-7.362 5.347-7.364 9.988v13.324h20.288v-1.33h-17.189z" opacity=".45" fill="#B03D44" fill-rule="nonzero"/>
            <rect fill="#3E89CC" fill-rule="nonzero" x="228" y="86" width="195" height="275" rx="9.742"/>
            <path fill="#C3ECFE" fill-rule="nonzero" d="M240 96h172v254H240z"/>
            <path fill="#FFF" fill-rule="nonzero" d="M246 104h159v238H246z"/>
            <path d="M268.764 83h113.471c3.184 0 5.765 2.643 5.765 5.903V101H263V88.903c0-3.26 2.58-5.903 5.764-5.903z" fill="#E8505B" fill-rule="nonzero"/>
            <path d="M267.83 97.468v-7.331A9.774 9.774 0 0 1 270.94 83c-4.635.995-7.939 5.018-7.94 9.67V100h125v-2.532H267.83z" fill="#B03D44" fill-rule="nonzero" opacity=".45"/>
            <circle fill="#0964AF" fill-rule="nonzero" opacity=".25" cx="278.5" cy="136.5" r="20.5"/>
            <ellipse stroke="#FE7D90" stroke-width="1.056" transform="rotate(-76.817 278.322 136.899)" cx="278.322" cy="136.899" rx="23.721" ry="23.724"/>
            <path d="M282.016 137.666c2.727-1.797 3.961-5.193 3.034-8.348-.927-3.155-3.795-5.318-7.05-5.318-3.256 0-6.124 2.163-7.05 5.318-.928 3.155.306 6.55 3.033 8.348-4.674 1.117-7.977 5.333-7.983 10.189v6.177a20.131 20.131 0 0 0 24 0v-6.177c-.007-4.856-3.31-9.072-7.984-10.189z" fill="#FFF" fill-rule="nonzero"/>
            <path fill="#0964AF" fill-rule="nonzero" d="m311 118 .927 1.975 2.073.317-1.5 1.537.354 2.171-1.854-1.025-1.855 1.025.355-2.171-1.5-1.537 2.073-.317zM321 118l.927 1.975 2.073.317-1.5 1.537.355 2.171-1.855-1.025-1.854 1.025.354-2.171-1.5-1.537 2.073-.317zM331 118l.927 1.975 2.073.317-1.5 1.537.354 2.171-1.854-1.025-1.854 1.025.354-2.171-1.5-1.537 2.073-.317zM340 118l.927 1.975 2.073.317-1.5 1.537.354 2.171-1.854-1.025-1.855 1.025.355-2.171-1.5-1.537 2.073-.317zM350 118l.927 1.975 2.073.317-1.5 1.537.355 2.171-1.855-1.025-1.854 1.025.354-2.171-1.5-1.537 2.073-.317z"/>
            <g opacity=".15" stroke="#0964AF" stroke-linecap="round" stroke-linejoin="round" stroke-width="2.113">
                <path d="M309.009 129.619h20.541M375.647 137.748h15.619M309.009 137.748h59.87M309.009 145.876h82.257M365.121 154.006h26.145M309.009 154.006h49.604M336.291 129.619h54.975"/>
            </g>
            <ellipse fill="#0964AF" fill-rule="nonzero" opacity=".25" transform="rotate(-22.718 278.319 194.606)" cx="278.319" cy="194.606" rx="20.428" ry="20.426"/>
            <path d="M282.016 194.666c2.727-1.797 3.961-5.193 3.034-8.348-.927-3.155-3.795-5.318-7.05-5.318-3.256 0-6.124 2.163-7.05 5.318-.928 3.155.306 6.551 3.033 8.348-4.674 1.117-7.977 5.334-7.983 10.19v6.178a20.135 20.135 0 0 0 24 0v-6.178c-.007-4.856-3.31-9.072-7.984-10.19z" fill="#FFF" fill-rule="nonzero"/>
            <path fill="#0964AF" fill-rule="nonzero" d="m311 176 .927 1.975 2.073.317-1.5 1.537.354 2.171-1.854-1.025-1.855 1.025.355-2.171-1.5-1.537 2.073-.317zM321 176l.927 1.975 2.073.317-1.5 1.537.355 2.171-1.855-1.025-1.854 1.025.354-2.171-1.5-1.537 2.073-.317zM331 176l.927 1.975 2.073.317-1.5 1.537.354 2.171-1.854-1.025-1.854 1.025.354-2.171-1.5-1.537 2.073-.317z"/>
            <path fill="#0964AF" fill-rule="nonzero" opacity=".25" d="m340 176 .927 1.975 2.073.317-1.5 1.537.354 2.171-1.854-1.025-1.855 1.025.355-2.171-1.5-1.537 2.073-.317zM350 176l.927 1.975 2.073.317-1.5 1.537.355 2.171-1.855-1.025-1.854 1.025.354-2.171-1.5-1.537 2.073-.317z"/>
            <g opacity=".15" stroke="#0964AF" stroke-linecap="round" stroke-linejoin="round" stroke-width="2.113">
                <path d="M309.009 187.747h36.536M330.638 195.876h60.628M309.009 195.876h14.86M309.009 204.004h82.257M374.42 212.132h16.846M309.009 212.132h58.904M352.286 187.747h38.98"/>
            </g>
            <ellipse fill="#0964AF" fill-rule="nonzero" opacity=".25" transform="rotate(-67.608 278.319 252.31)" cx="278.319" cy="252.309" rx="20.426" ry="20.428"/>
            <path d="M282.016 252.666c2.727-1.797 3.961-5.193 3.034-8.348-.927-3.155-3.795-5.318-7.05-5.318-3.256 0-6.124 2.163-7.05 5.318-.928 3.155.306 6.55 3.033 8.348-4.674 1.117-7.977 5.333-7.983 10.19v6.177a20.131 20.131 0 0 0 24 0v-6.177c-.006-4.856-3.31-9.073-7.984-10.19z" fill="#FFF" fill-rule="nonzero"/>
            <path fill="#0964AF" fill-rule="nonzero" d="m311 234 .927 1.975 2.073.317-1.5 1.537.354 2.171-1.854-1.025-1.855 1.025.355-2.171-1.5-1.537 2.073-.317zM321 234l.927 1.975 2.073.317-1.5 1.537.355 2.171-1.855-1.025-1.854 1.025.354-2.171-1.5-1.537 2.073-.317zM331 234l.927 1.975 2.073.317-1.5 1.537.354 2.171-1.854-1.025-1.854 1.025.354-2.171-1.5-1.537 2.073-.317zM340 234l.927 1.975 2.073.317-1.5 1.537.354 2.171-1.854-1.025-1.855 1.025.355-2.171-1.5-1.537 2.073-.317z"/>
            <path fill="#0964AF" fill-rule="nonzero" opacity=".25" d="m350 234 .927 1.975 2.073.317-1.5 1.537.355 2.171-1.855-1.025-1.854 1.025.354-2.171-1.5-1.537 2.073-.317z"/>
            <g opacity=".15" stroke="#0964AF" stroke-linecap="round" stroke-linejoin="round" stroke-width="2.113">
                <path d="M309.009 244.874h20.541M346.694 253.002h44.572M309.009 253.002h30.916M309.009 261.132h82.257M327.722 269.26h63.544M309.009 269.26h12.204M336.291 244.874h54.975"/>
            </g>
            <circle fill="#0964AF" fill-rule="nonzero" opacity=".25" cx="278.5" cy="310.5" r="20.5"/>
            <path d="M282.016 310.666c2.727-1.797 3.961-5.193 3.034-8.348-.927-3.155-3.795-5.318-7.05-5.318-3.256 0-6.124 2.163-7.05 5.318-.928 3.155.306 6.55 3.033 8.348-4.674 1.117-7.977 5.334-7.983 10.19v6.176a20.131 20.131 0 0 0 24 0v-6.176c-.006-4.857-3.31-9.073-7.984-10.19z" fill="#FFF" fill-rule="nonzero"/>
            <path fill="#0964AF" fill-rule="nonzero" d="m311 291 .927 1.975 2.073.317-1.5 1.538.354 2.17-1.854-1.024-1.855 1.024.355-2.17-1.5-1.538 2.073-.317zM321 291l.927 1.975 2.073.317-1.5 1.538.355 2.17-1.855-1.024-1.854 1.024.354-2.17-1.5-1.538 2.073-.317zM331 291l.927 1.975 2.073.317-1.5 1.538.354 2.17-1.854-1.024-1.854 1.024.354-2.17-1.5-1.538 2.073-.317zM340 291l.927 1.975 2.073.317-1.5 1.538.354 2.17-1.854-1.024-1.855 1.024.355-2.17-1.5-1.538 2.073-.317zM350 291l.927 1.975 2.073.317-1.5 1.538.355 2.17-1.855-1.024-1.854 1.024.354-2.17-1.5-1.538 2.073-.317z"/>
            <g opacity=".15" stroke="#0964AF" stroke-linecap="round" stroke-linejoin="round" stroke-width="2.113">
                <path d="M391.266 327.387h-20.54M324.629 319.259h-15.62M391.266 319.259h-59.869M391.266 311.13h-82.257M335.155 303.002h-26.146M391.266 303.002h-49.603M363.985 327.387h-54.976"/>
            </g>
            <path d="M340.968 247.428a32.465 32.465 0 0 0 18.647 5.892c1.937 0 3.871-.171 5.779-.51a32.557 32.557 0 0 0 12.873-5.314l12.17 14.687c-.03.496.016.994.135 1.477a4.134 4.134 0 0 0 2.555 3.152c.355.104.774.164.97.48.09.19.144.397.158.607a2.163 2.163 0 0 0 2.313 1.691v-.004l9.036 10.904a1.7 1.7 0 0 0 .69 1.425c.262.178.616.328.647.646-.006.161-.044.319-.111.465a1.23 1.23 0 0 0 1.796 1.439 2.086 2.086 0 0 0 1.923 1.993l9.304 11.229a3.625 3.625 0 0 0 2.8 1.313c.115 0 .231-.019.347-.03v-8.87l-6.63-8.002c.07-.09.134-.183.207-.27a6.323 6.323 0 0 1 1.178-1.053l.174.41s2.023-.716 5.071-1.8v-6.689c-3.798 2.338-6.875 4.248-6.875 4.248l.044.102-.261.078c-1.2.099-2.404.12-3.606.064l-9.067-10.941a165.817 165.817 0 0 0 6.287-1.883l.15-.05c.302-.097.605-.197.911-.297l.334-.113c.25-.083.499-.167.748-.253l.38-.131.698-.246.411-.148.67-.246.41-.152c.229-.082.454-.17.68-.258l.38-.145c.237-.093.47-.186.704-.28l.338-.135c.306-.125.607-.252.903-.378l.092-.039c.329-.14.65-.283.963-.426l.246-.116c.224-.104.445-.208.658-.312l.315-.158a16.867 16.867 0 0 0 .858-.449 17.949 17.949 0 0 0 .77-.441c.143-.082.28-.172.412-.257.092-.06.184-.12.273-.18.132-.09.255-.179.375-.267.076-.057.154-.113.226-.169.125-.098.238-.196.349-.293.052-.047.11-.093.16-.14.02-.019.034-.038.055-.057v-35.925c-.182.172-.363.324-.548.522-3.655 3.923-6.231 29.056-6.325 29.99-.072.7-10.453 6.701-15.63 9.653 0-.71-.259-1.396-.728-1.93a5.045 5.045 0 0 0-2.038-1.264.949.949 0 0 0-.329-.067l-13.653-16.489a33.098 33.098 0 0 0 2.735-3.36 32.634 32.634 0 0 0 .753-36.277 32.693 32.693 0 0 0-33.255-14.577 32.67 32.67 0 0 0-26.205 25.12 32.643 32.643 0 0 0 13.2 33.804zm-2.12-41.315a25.252 25.252 0 0 1 16.394-10.462 25.75 25.75 0 0 1 4.496-.397c11.705.021 21.883 8.026 24.653 19.39 2.77 11.363-2.583 23.148-12.967 28.546s-23.114 3.013-30.837-5.776a25.386 25.386 0 0 1-1.74-31.3z" fill="#5AB5E2" fill-rule="nonzero" opacity=".45" style="mix-blend-mode:multiply"/>
            <path d="M165 366c0 1.102-12.983 2-29 2s-29-.896-29-2c0-1.105 12.984-2 29-2s29 .895 29 2z" fill="#BDEEFF" fill-rule="nonzero" opacity=".35"/>
            <path d="M173.597 253s3.248 3.706 3.845 3.925c.367.133 2.853.596 3.672.74.308.04.608.123.892.248.278.154.528.353.74.588.601.64 1.166 1.312 1.691 2.014.149.18.28.372.391.576.116.257.2.527.252.804.351 1.57.654 3.149.907 4.737a.417.417 0 0 1-.012.247c-.09.182-.374.137-.529.006-.155-.13-.273-.323-.466-.384 0 .135-.005.27-.007.405a.981.981 0 0 1-.9-.128 7.366 7.366 0 0 1-2.834-2.695 3.034 3.034 0 0 0-.449-.644c-.502-.487-1.281-.479-1.958-.65a11.208 11.208 0 0 1-1.838-.585c-1.053-.475-1.183-1.72-1.284-1.955a.958.958 0 0 0-.272-.321c-.69-.614-3.438-2.652-3.438-2.652" fill="#FFBE9D" fill-rule="nonzero"/>
            <path d="M136.174 173c1.418.442 2.168 2.423 2.65 3.778a22.581 22.581 0 0 1 1.06 5.097 7.542 7.542 0 0 1-.233 3.586 7.623 7.623 0 0 1-.925 1.56c-.183.29-.408.546-.667.76a.967.967 0 0 1-.923.168c-.442-.185-.62-.746-.745-1.24-.817-3.22-1.711-6.474-3.391-9.276" fill="#170D54" fill-rule="nonzero"/>
            <path d="M138 183.116c.03-.978 1.085-1.615 1.998-.603.757.839.958 2.43 1 3.605.052 1.409-1.066 1.682-1.986 1.882" fill="#F2A181" fill-rule="nonzero"/>
            <path d="M147.996 354.354a33.317 33.317 0 0 1-.174 3.974c-.197 1.042-3.396.705-3.703.113-.306-.592.075-5.441.075-5.441" fill="#FFCCB0" fill-rule="nonzero"/>
            <path d="M143.092 360.085c-.099 1.112-.092 3.224-.092 3.224l3.666.842.466-.594a6.511 6.511 0 0 0 2.156 1.121c1.135.239 2.296.345 3.458.318 3.028-.193 5.117-1.092 5.221-1.514.434-1.763-3.587-1.542-4.41-1.606-1.915-.15-3.597-1.274-4.394-2.94-.334-.83-.137-1.018-.637-.907a1.22 1.22 0 0 0-.782.524c-.485.75-1.415 1.126-2.32.94a2.647 2.647 0 0 1-1.384-.755c-.577.22-.954.755-.948 1.347z" fill="#E8505B" fill-rule="nonzero"/>
            <path d="M141.926 317.1c.334-5.397-3.926-12.62-3.926-12.62s11.505-6.468 11.678-8.48c0 0 1.576 11.107 2.14 15.026.982 6.805-2.337 45.634-2.337 45.634a13.378 13.378 0 0 1-5.61.082s-.597-14.997-2.994-25.156c-1.133-4.82.652-13.15 1.05-14.486z" fill="#3E89CC" fill-rule="nonzero"/>
            <path d="M140.571 253.976c4.427 9.853 9.235 41.643 10.387 52.618.493 4.653-3.398 10.107-7.923 5.897-5.402-5.022-13.002-28.034-15.717-32.096-2.715-4.063-12.875-7.781-5.936-28.395" fill="#3E89CC" fill-rule="nonzero"/>
            <path d="M121 355s-.408 4.162-.57 5.22c-.16 1.056-3.783.908-4.164.33-.381-.577-.24-5.47-.24-5.47" fill="#FFCCB0" fill-rule="nonzero"/>
            <path d="M115.008 361.24a23.744 23.744 0 0 0 .115 3.034l3.99.272.242-.66a6.243 6.243 0 0 0 2.265.83l3.368.228c2.465.168 3.886-.055 3.978-.489.382-1.815-2.568-1.931-3.336-1.983-2.201-.15-4.513-1.354-4.961-2.52-.323-.845-.142-1.041-.608-.919a1.148 1.148 0 0 0-.725.55 2.018 2.018 0 0 1-2.157 1.007 2.405 2.405 0 0 1-1.305-.75 1.476 1.476 0 0 0-.866 1.4z" fill="#E8505B" fill-rule="nonzero"/>
            <path d="M130.174 315.702c-.758 3.85-10.923 2.412-10.705-.997.313-4.846-3.12-11.11-4.437-34.178-.15-2.635-2.82-3.022-3.87-10.19-1.038-7.18 3.26-15.13 3.26-15.13L130.064 253s6.01 13.415 4.768 26.791c-1.243 13.377-3.761 31.379-4.657 35.911z" fill="#3E89CC" fill-rule="nonzero"/>
            <path d="M119.036 314.163s-3.407 6.93-3.807 11.941c-.586 7.33.138 31.455.138 31.455s3.687.818 5.656.226c0 0 8.653-42.803 8.97-47.405.318-4.602-10.957 3.783-10.957 3.783z" fill="#3E89CC" fill-rule="nonzero"/>
            <path d="M146.322 207.135c-1.747-2.024-7.292-5.36-14.705-5.123-5.105.166-19.012 1.014-20.566 4.463-.793 1.764-1.643 19.822-.484 26.048.875 4.682 3.112 16.28 3.112 19.08 0 2.801-1.488 4-.794 4.812 1.556 1.82 12.197 2.585 17.192 2.585 4.446 0 12.014-1.197 12.398-2.636.57-2.135-.868-2.055-1.063-4.293-.194-2.239-1.242-17.002.06-19.147 2.066-3.401 4.12-12.375 4.278-14.942.158-2.567 2.319-8.823.572-10.847z" fill="#57C6F2" fill-rule="nonzero"/>
            <path d="M115.174 222.113c-.518 1.1-4.032 6.866-4.032 6.866l-.142.69c.064 1.034.183 2.063.357 3.083.854 4.62 3.039 16.066 3.039 18.83 0 2.763-1.454 3.946-.776 4.748.607.718 2.64 1.266 5.163 1.67a6.675 6.675 0 0 1-1.166-1.714c-.203-.81 1.123-.604 1.37-1.285.247-.681-3.017-14.036-3.813-20.451-.796-6.416.517-13.536 0-12.437z" fill="#5AB5E2" fill-rule="nonzero" opacity=".45" style="mix-blend-mode:multiply"/>
            <path d="M136.295 195.857s.048 6.129.288 6.376a9.4 9.4 0 0 0 1.417.816s-.84 5.325-2.137 4.93c-1.297-.395-9.863-4.846-9.863-4.846s1.216-.508 1.216-1.002S126.063 192 126.063 192" fill="#FFBE9D" fill-rule="nonzero"/>
            <path d="M129.929 174c1.27.354 4.618-.354 5.542 1.063.923 1.417 1.731 4.841 2.077 5.786.69 1.881 1.14 3.891 1.64 5.83.653 2.527 1.73 7.155-.687 9.268-.5.526-1.155.866-1.865.968-1.144.212-2.282.452-3.427.66-1.776.326-3.736.705-5.498.12-2.352-.782-3.643-4.09-4.248-6.337L120 178.485l9.929-4.485z" fill="#FFBE9D" fill-rule="nonzero"/>
            <path d="M136.529 210s.513 22.64 1.471 36.411L134.527 251l-2.388-5.75c-.478-11.742.279-23.5 2.258-35.096l2.132-.154zM137 207.598l-.075.348a8.046 8.046 0 0 1-.627 1.878l-1.858.176s-1.264-.814-1.431-1.69c-.167-.875 2.074-2.31 2.074-2.31l.272.132c.629.303 1.185.796 1.619 1.433l.026.033z" fill="#1B227A" fill-rule="nonzero"/>
            <path d="M126.802 201a12.59 12.59 0 0 0-2.802 2.75 25.749 25.749 0 0 0 6.83 8.25 11.617 11.617 0 0 1 4.17-5.07s-7.462-1.502-8.198-5.93zM135 206.943c1.665.85 3.031 2.275 3.89 4.057a22.331 22.331 0 0 0-.53-7.53s-1.315-2.424-1.868-2.47c.23 2.866-1.492 5.943-1.492 5.943z" fill="#EAEAEA" fill-rule="nonzero"/>
            <path d="M145.4 206.275c4.537 2.533 12.296 28.57 13.158 28.854.863.285 18.442 21.08 18.442 21.08L174.212 260s-17.745-12.96-22.84-18.636C147.787 237.37 141 219.53 141 219.53s-.136-15.786 4.4-13.254z" fill="#57C6F2" fill-rule="nonzero"/>
            <path d="M152.687 240.201c-1.76-1.569-7.343-18.201-7.343-18.201L144 227.694c2.233 5.248 5.083 11.413 7.013 13.57 5.108 5.706 22.9 18.736 22.9 18.736l1.087-1.483s-20.553-16.747-22.313-18.316z" fill="#5AB5E2" fill-rule="nonzero" opacity=".45" style="mix-blend-mode:multiply"/>
            <path d="m121.891 249.022-26.852 5.031c-.35.066-.657.273-.845.573-.19.3-.243.665-.148 1.006l3.597 18.437c.176.636.814 1.031 1.466.909l26.852-5.032c.35-.066.657-.274.845-.573.189-.3.243-.665.149-1.006l-3.598-18.436a1.276 1.276 0 0 0-1.466-.909z" fill="#FE7D90" fill-rule="nonzero"/>
            <path fill="#E5F8FF" fill-rule="nonzero" d="M121.472 251 96 255.791 99.529 274 125 269.209z"/>
            <path stroke="#A1D2F0" stroke-width=".528" stroke-linecap="round" stroke-linejoin="round" d="m123 268-3-16M120 269l-3-16M117 270l-3-16M113 270l-3-16M110 271l-3-16M106 272l-3-16M102 272l-3-16"/>
            <path d="M108.03 263s1.081 2.143 1.66 3.23c.378.711 3.25 3.087 4.402 4.98.633.876.95 1.93.903 2.999-.1 1.1-1.094 1.916-2.228 1.827-.304-.064-.652-.208-.898-.023-.11.11-.198.24-.256.382-.244.425-.73.66-1.226.594a1.202 1.202 0 0 1-1.015-.893 2.096 2.096 0 0 1-2.73-.03 1.57 1.57 0 0 0 .659-1.403 3.16 3.16 0 0 0-.837-1.307 3.984 3.984 0 0 1-.858-2.56c.019-.65.2-1.29.273-1.938a6.014 6.014 0 0 0-.879-3.85" fill="#FFBE9D" fill-rule="nonzero"/>
            <path d="M116 219.65c-.807 2.89-13.096 21.898-13.096 21.898l6.579 24.094-3.75 2.358S94.032 248.471 94 242.958c-.033-5.514 8.556-25.732 14.838-33.999 1.999-2.628 6.007-3.959 6.007-3.959" fill="#57C6F2" fill-rule="nonzero"/>
            <path d="M122.09 188.99c.807-.477 1.426-.98 1.951-.2.279.412.448.989.923 1.128a.952.952 0 0 0 1.08-.772 2.812 2.812 0 0 0-.177-1.464c-.326-1.053-.65-2.106-.973-3.16a4.794 4.794 0 0 1-.227-3.162c.225-.498.564-.936.989-1.277a10.428 10.428 0 0 1 4.805-2.074 50.79 50.79 0 0 0 5.173-1.07 5.558 5.558 0 0 0 1.97-1.001 4.3 4.3 0 0 0 1.396-3.211 6.682 6.682 0 0 0-1.01-3.425c-.127.415-.3.813-.517 1.188a4.425 4.425 0 0 0-.942-1.49c-.503 2.828-12.304 1.883-15.061 3.129-1.91.864-3.492 1.43-3.434 4.553a1.144 1.144 0 0 1-.374.494c-1.693 1.57-2.426 3.48-2.64 6.314-.26 3.469 1.743 7.223 3.705 10.083a6.447 6.447 0 0 0 1.456 1.758 3.836 3.836 0 0 0 2.744.625c.85-.165 2.53-.09 2.543-.964.012-.625-1.314-1.74-1.68-2.245" fill="#1B227A" fill-rule="nonzero"/>
            <path d="M124.955 192.535c.128.455-.022.948-.377 1.235a1.006 1.006 0 0 1-1.212.051c-1.222-.498-2.103-1.655-2.312-3.036-.273-1.563.51-3.126 1.847-2.72.79.326 1.297 1.154 1.262 2.059" fill="#FFBE9D" fill-rule="nonzero"/>
            <path d="m135.947 197-3.947.658c1.08.915 2.523 1.397 4 1.337" fill="#F2A181" fill-rule="nonzero"/>
            <path d="M145.37 316.95c.716-2.264-1.297-5.776-2.287-8.39-.99-2.615-8.44-23.56-8.44-23.56L133 293.448c1.546 3.62 3.238 7.495 4.927 10.914a76.31 76.31 0 0 0 1.95 3.702c1.178 2.565 2.417 6.026 2.225 8.957-.426 1.339-2.32 9.697-1.113 14.53 2.549 10.193 3.184 25.24 3.184 25.24.604.105 1.214.175 1.827.209-.215-3.715-.59-10.274-.63-11.573-.06-1.831-2.46-12.379-2.288-16.552a54.383 54.383 0 0 1 2.288-11.925z" fill="#2679C4" fill-rule="nonzero"/>
            <path fill="#FE7D90" fill-rule="nonzero" d="m127 263.46-2.323.54-1.677-8.517 2.33-.483z"/>
            <path d="M129.964 257.833c-.21-1.22-1.278-2.023-2.387-1.794l-2.577.536.76 4.425 2.577-.536c1.109-.233 1.837-1.41 1.627-2.631zm-3.165.658c-.087-.502.11-1.012.499-1.292.388-.28.892-.275 1.275.013.384.288.573.802.478 1.302-.095.5-.454.888-.91.984-.624.129-1.224-.322-1.342-1.008v.001z" fill="#FE7D90" fill-rule="nonzero"/>
            <ellipse fill="#BDEEFF" fill-rule="nonzero" opacity=".35" cx="210" cy="382.5" rx="30" ry="2.5"/>
            <path d="M246.562 220.456 228 218v36.647l10.069 1.333a1.68 1.68 0 0 0 1.881-1.193l8.015-32.449a1.546 1.546 0 0 0-.273-1.25 1.594 1.594 0 0 0-1.13-.632z" fill="#5AB5E2" fill-rule="nonzero" opacity=".45" style="mix-blend-mode:multiply"/>
            <path d="m223.653 216.086-6.618 29.227c-.087.38-.01.78.21 1.102.22.323.564.537.948.593l20.6 2.978a1.391 1.391 0 0 0 1.554-1.076l6.618-29.226c.087-.381.01-.781-.21-1.103a1.39 1.39 0 0 0-.948-.592l-20.6-2.974a1.39 1.39 0 0 0-1.554 1.07z" fill="#57C6F2" fill-rule="nonzero"/>
            <path fill="#E5F8FF" fill-rule="nonzero" d="M224.386 217 218 245.041 238.614 248 245 219.959z"/>
            <path stroke="#A1D2F0" stroke-width=".528" stroke-linecap="round" stroke-linejoin="round" d="m243 222-17-2M242 224l-17-2M235 227l-11-2M235 229l-11-2M234 231l-11-2M238 244l-11-2"/>
            <path d="M216.034 245.65a8.86 8.86 0 0 0 2.84-2.468l2.434-2.823c.36-.34.602-.781.692-1.262-1.36-.107-2.237 1.615-3.598 1.717a27.41 27.41 0 0 1 2.703-6.257c.357-.439.5-1.007.39-1.557a10.366 10.366 0 0 0-3.78 2.689 19.798 19.798 0 0 0-2.049 2.538A26.955 26.955 0 0 0 212 247" fill="#F2A181" fill-rule="nonzero"/>
            <path d="M209.51 268.421 194.838 256s-6.83 9.293-4.258 18.258c1.266 4.41 2.854 6.595 3.543 8.687.645 1.954 5.062 29.618 4.732 31.641-.329 2.023-2.7 7.681-3.606 13.633-1.089 7.157-.903 30.478-1.749 36.662-.845 6.184 4.844 7.23 5.16 5.137 2.676-17.88 9.742-45.743 10.73-54.681.989-8.94.587-25.308.122-46.916z" fill="#FFBE9D" fill-rule="nonzero"/>
            <path d="M209.543 286.014 203 300.62a32.057 32.057 0 0 1 4.564 15.31c.11 2.817-.145 5.64-.065 8.459.006.206.036.412.088.612.877-4.175 1.531-7.62 1.787-9.864.716-6.276.72-16.255.493-29.136a2.928 2.928 0 0 0-.324.014z" fill="#F2A181" fill-rule="nonzero"/>
            <path d="M200.008 364.383s-1.357 6.609-.991 7.451c.365.843 1.677 3.291 3.02 4.177 1.412.928 4.536 2.032 4.785 2.433a1.019 1.019 0 0 1-.18 1.35 6.333 6.333 0 0 1-4.452 1.162c-4.239-.72-4.675-2.648-7.142-2.956-.426-.054-1.215.595-2.394-.026-1.06-.49-1.716-1.603-1.65-2.798.176-1.82 1.169-3.32 1.875-4.668.707-1.346 1.205-7.508 1.205-7.508" fill="#FFBE9D" fill-rule="nonzero"/>
            <path d="M206.72 380.395c.31-.535.39-1.344.1-1.541a25.007 25.007 0 0 0-2.658-1.607c-.828-.383-2.142-.72-1.678-.47.463.25-.39 1.19-1.165 1.141-2.676-.165-4.65-1.95-6.175-2.334-2.2-.552-3.122-3.16-3.218-3.584a10.306 10.306 0 0 0-1.58 3.026 5.304 5.304 0 0 0-.329 2.311c.234.71.318 1.46.247 2.204a4.2 4.2 0 0 0 1.581.573 6.21 6.21 0 0 0 1.704.025l.189-1.389c.457-.005.914.04 1.361.135a7.36 7.36 0 0 1 2.079.975c.306.367.55 1.035.955 1.238a8.503 8.503 0 0 0 3.51.88c2.87.169 4.545-.668 5.076-1.583z" fill="#1B227A" fill-rule="nonzero"/>
            <path d="M229.726 379.796c-.317-.35-3.728-.905-5.329-1.572a9.199 9.199 0 0 1-3.73-3.55c-.36-.868-.277-5.268-.231-7.114.319-12.723 2.672-43.813 3.013-51.258.591-12.941-1.09-26.299-6.074-47.073L198.815 255s-5.197 9.653-3.46 18.881c1.01 5.355 5.455 6.179 6.207 8.26.753 2.08 11.98 35.637 11.98 35.637a63.05 63.05 0 0 0-2.31 15.2c-.11 6.785 2.97 27.248 3.542 35.045.067 1.524.33 5.17-.12 6.331-.55 1.422-1.954 3.094-1.884 4.888a2.76 2.76 0 0 0 2.11 2.44c1.318.412 2.048-.351 2.5-.37 2.616-.108 3.34 1.69 7.858 1.688a7.15 7.15 0 0 0 4.485-1.863.954.954 0 0 0 .003-1.341z" fill="#FFBE9D" fill-rule="nonzero"/>
            <path d="M229.838 381.634c.247-.554.214-1.336-.113-1.478a26.477 26.477 0 0 0-2.978-1.108c-.91-.233-2.316-.346-1.802-.18.514.165-.235 1.187-1.044 1.266-2.792.266-5.086-1.118-6.717-1.24-2.354-.178-3.219-2.508-3.378-2.894a10.225 10.225 0 0 0-1.665 3.12 4.707 4.707 0 0 0-.011 2.244 4.76 4.76 0 0 1 .563 2.05c.547.207 1.13.307 1.717.295a7.111 7.111 0 0 0 1.767-.245v-1.346c.47-.077.949-.105 1.427-.086a4.857 4.857 0 0 1 2.3.781c.384.278.787.745 1.236.855a9.824 9.824 0 0 0 3.666.267c2.996-.292 4.61-1.35 5.032-2.3zM195.844 255.39c-1.27 1.37-5.795 8.784-5.843 14.818-.048 6.034 2.135 9.904 2.331 11.164 1.435 9.218 2.824 20.334 2.824 20.939 0 .605 5.322 4.094 12.479 3.65 13.223-.816 18.365-4.223 18.365-4.223s-.626-22.33-2.665-33.34c-1.022-5.518-5.47-14.398-5.47-14.398" fill="#1B227A" fill-rule="nonzero"/>
            <path d="M184 230.047s2.081 10.522 2.627 12.395c.546 1.873 3.245 13.762 5.803 13.555 2.559-.206 16.57-12.114 16.57-12.114l-1.984-4.04-12.333 5.985s-1.113-13.592-2.091-16.828" fill="#FFBE9D" fill-rule="nonzero"/>
            <path d="M188 237c1.353 4.557 4.129 9.362 4.957 12.896.169.711 9.023-2.356 9.043-5.525" fill="#F2A181" fill-rule="nonzero"/>
            <path d="M191.717 216s-4.018.448-6.058 2.082c-5.196 4.165-1.175 19.283-1.175 19.283s-.257.806 3.231.602a24.102 24.102 0 0 0 6.285-1.245l-1.008-12.387" fill="#E8505B" fill-rule="nonzero"/>
            <path d="M187.059 225s-.441 8.64 1.095 13a13.63 13.63 0 0 0 2.846-.38L187.059 225z" fill="#B03D44" fill-rule="nonzero"/>
            <path d="M212.068 188.827c2.558 3.218 2.052 7.742 1.42 11.76l-.957 6.092a3.015 3.015 0 0 1-1.139 2.652c-.81.645-1.899.857-2.904.565l.03 5.042c-2.964.069-5.929.08-8.894.034a8.111 8.111 0 0 0-.77-3.424c-1.45-.027-2.42-1.437-2.988-2.732a38.78 38.78 0 0 1-1.592-4.614 24.84 24.84 0 0 1-1.257-6.326 8.967 8.967 0 0 1 1.881-6.055 11.328 11.328 0 0 1 3.615-2.619c1.84-.931 4.047-1.665 5.944-.85" fill="#FFBE9D" fill-rule="nonzero"/>
            <path d="M209.103 204.03c-.338-1.68-.314-2.627.236-3.745.167-.374.425-.7.751-.95a1.587 1.587 0 0 1 1.528-.158c.325.15.594.4.767.715.555-2.29.736-4.653.537-7a9.105 9.105 0 0 0-5.777-7.93c-6.055-2.486-14.753-.03-17.214 5.912-1.857 4.488-.915 10.964 2.64 14.727 3.147 3.328 7.675 3.815 11.855 3.133 2.138-.352 5.44-.14 6.544-3.047a.325.325 0 0 0-.334-.43c-.868.066-1.47-.917-1.533-1.227z" fill="#1B227A" fill-rule="nonzero"/>
            <path d="M209.06 196.012c.222.355.17.833.38 1.196.342.533.853.931 1.448 1.13 1.018.48.78 1.988.75 2.662.769-.52.894-1.934 1.08-2.652.208-.806.34-1.637.572-2.434a12.48 12.48 0 0 0 .686-2.33c.249-2.83-1.497-6.155-3.607-7.743a4.947 4.947 0 0 0-5.616.067 4.44 4.44 0 0 0-1.603 2.074c-.175.345-.198.749-.063 1.112" fill="#1B227A" fill-rule="nonzero"/>
            <path d="M196 216.2c.143-1.016.4-2.2 1.303-2.602.255-.099.522-.158.793-.177 2.751-.32 5.52-.458 8.287-.411a7.383 7.383 0 0 1 3.353.618c1.606.844 2.489 2.668 3.264 4.372" fill="#B03D44" fill-rule="nonzero"/>
            <path d="M219.448 252.98a23.717 23.717 0 0 1-1.656-1.935c-.796-1.551-1.491-8.08-1.218-9.747.294-1.788 1.89-2.75 2.61-6.73a14.614 14.614 0 0 0-2.378-10.816c-1.675-2.413-.682-2.398-1.25-5.355a2.805 2.805 0 0 0-.593-1.473 14.412 14.412 0 0 0-3.35-1.57c-4.656-.716-7.392-.157-12.1.047-2.335.09-4.657.382-6.94.87-2.53.554-4.735 1.219-5.254 4.624a34.017 34.017 0 0 0 1.486 15.582c1.07 3.307 7.46 14.762 5.877 16.978a7.556 7.556 0 0 0-1.377 2.101c-.4 2.315 4.874 3.128 7.132 3.312 3.608.197 7.225.173 10.83-.069 2.612-.12 8.325-1.025 8.73-4.225.026-.58-.17-1.15-.549-1.594z" fill="#E8505B" fill-rule="nonzero"/>
            <path d="M218 234.908a9.154 9.154 0 0 1-.64 2.579c-.605.32-3.002.857-4.38.205A68.01 68.01 0 0 0 211 229s7 5.076 7 5.908z" fill="#B03D44" fill-rule="nonzero"/>
            <path d="M197.3 206.134c-1.787-.51-3.71.501-4.904 1.935-1.375 1.656-1.97 4.229-.685 5.955a5.74 5.74 0 0 0 1.862 1.495 9.818 9.818 0 0 0 7.014 1.31c2.365-.586 4.44-2.713 4.413-5.163-.026-2.217-1.634-4.067-3.262-5.562" fill="#1B227A" fill-rule="nonzero"/>
            <path d="M215 233.311S223.322 254 226.933 254c2.627 0 9.067-19.099 9.067-19.099l-4.07-1.98-4.537 7.998L222.794 226" fill="#FFBE9D" fill-rule="nonzero"/>
            <path d="M232 234.055s1.315-2.217 1.219-3.79c-.037-.599-.37-3.452-.092-4.014.362-.96.806-1.882 1.327-2.755.38-.357 1.79-.926 2.134-.674.344.253.774-.918 1.345-.816.563.08.999.568 1.048 1.173 0 .561.763.663.858 1.072.031.362.095.721.19 1.07.143.306.564.156.715.919.138.699-.048.765 0 1.122.048.357.333.324.236 1.004a8.88 8.88 0 0 1-.912 2.327 6.534 6.534 0 0 1-2.213 2.4 4.52 4.52 0 0 0-1.29 1.907" fill="#FFBE9D" fill-rule="nonzero"/>
            <path d="M233.838 218.296a.47.47 0 0 0-.277-.277.372.372 0 0 0-.354.069c-.208.208-.267.566-.142.857l2.161 5.973s.175.245.509-.114c.364-.39.247-.586.247-.586s-2.057-5.75-2.144-5.922z" fill="#1B227A" fill-rule="nonzero"/>
            <path d="M236.638 223.085a6.634 6.634 0 0 1-1.753 1.805c-.448.415-.392.683-.885 1.11.865-.064.717-.569 1.837-1.366.56-.294.977-.797 1.158-1.397a.194.194 0 0 0-.115-.222.198.198 0 0 0-.242.073v-.003z" fill="#F2A181" fill-rule="nonzero"/>
            <path d="M207 215.073c2.193.114 8.58-1.002 12.127 2.698 2.973 3.1 4.676 11.227 5.873 14.523-2.978 3.027-5.847 5.468-10.36 4.485-.17-.126-2.408-7.15-4.039-7.776" fill="#E8505B" fill-rule="nonzero"/>
            <path d="M210 305.802c-.837-5.389-6.021-22.102-6.238-22.558A20.187 20.187 0 0 1 198.14 277c-.637 3.663 1.039 7.285 2.61 10.656 2.745 5.889 4.371 12.294 6.735 18.344" fill="#170D54" fill-rule="nonzero"/>
            <path d="M428.079 220.491c-3.693 3.947-6.296 29.238-6.39 30.179-.095.94-18.689 11.35-18.689 11.35l2.617 2.98s19.813-4.966 23.375-9.255c3.023-3.634 10.008-33.367 10.008-33.367s-4.796-8.436-10.921-1.887z" fill="#57C6F2" fill-rule="nonzero"/>
            <ellipse fill="#BDEEFF" fill-rule="nonzero" opacity=".35" cx="456" cy="390" rx="55" ry="4"/>
            <path d="M484 370.199a32.044 32.044 0 0 0 2.143 3.586c.718.86 3.835-1.09 3.857-1.794.022-.706-2.769-4.991-2.769-4.991" fill="#FFBE9D" fill-rule="nonzero"/>
            <path d="M492.117 371.837c.714 1.034 1.883 3.086 1.883 3.086l-2.91 2.72-.76-.339a6.692 6.692 0 0 1-1.363 2.204 15.05 15.05 0 0 1-3.01 2.103c-2.9 1.383-5.327 1.592-5.658 1.236-1.384-1.488 2.45-3.36 3.168-3.849 1.675-1.12 2.604-3.097 2.413-5.136-.157-.98-.442-1.061.082-1.212a1.303 1.303 0 0 1 1.013.104 2.32 2.32 0 0 0 2.664-.29c.428-.378.728-.886.855-1.45a1.63 1.63 0 0 1 1.623.823z" fill="#1B227A" fill-rule="nonzero"/>
            <path d="M430.62 380.252a7.718 7.718 0 0 0-.62 2.784c.088 1.105 3.896 1.187 4.336.614.44-.573.664-5.65.664-5.65" fill="#FFBE9D" fill-rule="nonzero"/>
            <path d="M434.993 384.772a24 24 0 0 1-.357 3.228h-4.517l-.223-.722c-.819.401-1.706.646-2.615.722h-3.815c-2.792 0-4.377-.34-4.448-.81-.294-1.965 3.04-1.875 3.909-1.875 2.492 0 5.192-1.117 5.78-2.328.427-.879.238-1.102.754-.937.335.1.614.33.774.64a2.316 2.316 0 0 0 2.356 1.23 2.777 2.777 0 0 0 1.527-.706c.587.288.935.908.875 1.558z" fill="#1B227A" fill-rule="nonzero"/>
            <path d="M452.593 298.084c-.026.165-3.664-4.028-3.703-3.85-1.446 7.333-8.176 31.858-10.41 38.292v.014a6.753 6.753 0 0 1-3.487 3.207c-3.285.861-8.53-.27-8.953-6.59-.052-.696.105-1.457.026-2.28-.936-9.734 8.323-52.653 8.56-55.388.223-2.737 5.577-.762 7.075-1.269 7.483-2.495 12.853 17.604 10.892 27.864z" fill="#E8505B" fill-rule="nonzero"/>
            <path d="M439.22 336.73c-1.507-4.554.78-9.888.78-9.888s-12.809-9.952-13.46-3.878c-.066.48-.542 4.596-.54 6.917.005 8.304 2.862 34.607 2.653 50.668v1.048a31.5 31.5 0 0 0 5.894.391c.17 0 .352 0 .534-.012 1.07-10.002 3.386-23.603 4.482-37.286a31.658 31.658 0 0 0-.344-7.96zM471.977 334.063c-2.567-3.199-5.275-4.632-6.077-7.068-1.864-5.667-1.358-28.655-1.537-35.032.53-1.31 5.471-14.351-4.556-23.963 0 0-9.016 3.881-16.236 4.35-2.855.266-5.731.2-8.571-.198 0 0 5.37 8.127 5.683 11.73.531 6.12 11.933 43.083 12.804 45.11a24.182 24.182 0 0 0 4.895 7.375c5.058 6.6 16.888 20.48 25.855 33.774l.607.859c1.83-.766 3.56-1.75 5.156-2.93-4.835-8.854-9.89-23.867-18.023-34.007z" fill="#E8505B" fill-rule="nonzero"/>
            <path d="M427.56 220.1c1.807-2.093 9.56-5.331 17.225-5.087 5.28.166 22.067 1.915 23.674 5.487.819 1.82.742 19.148-.46 25.593-.902 4.846-3.637 17.299-3.637 20.196 0 2.898 1.54 4.137.819 4.98-1.61 1.885-13.639 2.731-18.805 2.731-4.599 0-12.426-1.241-12.823-2.73-.589-2.21.901-2.128 1.1-4.444.197-2.317 1.284-17.597-.063-19.818-2.137-3.525-5.383-13.515-5.548-16.17-.164-2.657-3.288-8.642-1.481-10.737z" fill="#57C6F2" fill-rule="nonzero"/>
            <path d="M440.847 209.095s-.052 6.511-.312 6.774c-.486.335-1 .626-1.535.871 0 0 .911 5.657 2.314 5.238 1.404-.42 10.686-5.149 10.686-5.149s-1.316-.54-1.316-1.065c0-.525 1.249-10.764 1.249-10.764" fill="#FFBE9D" fill-rule="nonzero"/>
            <path d="M443.142 187.699a3.802 3.802 0 0 0-3.948-.272 5.856 5.856 0 0 0-2.695 3.123 4.74 4.74 0 0 0-.005 3.976 2.44 2.44 0 0 0-1.493 2.321 5.909 5.909 0 0 0 1.176 2.988 2.631 2.631 0 0 0 2.637 1.124 2.99 2.99 0 0 0 1.68-1.203 7.978 7.978 0 0 0 .946-1.904 53.58 53.58 0 0 0 2.56-9.567" fill="#170D54" fill-rule="nonzero"/>
            <path d="M447.277 185c-1.372.369-4.99-.369-5.987 1.106-.997 1.476-1.87 5.045-2.246 6.028-.744 1.96-1.23 4.053-1.771 6.072-.705 2.632-2.522 7.59.093 9.79a5.345 5.345 0 0 0 2.664.873c1.237.22 2.466.47 3.698.688 1.916.34 4.034.735 5.94.125 2.543-.813 3.936-4.26 4.59-6.6L458 189.673 447.277 185z" fill="#FFBE9D" fill-rule="nonzero"/>
            <path d="M452.02 204.691c-.088.457.129.918.542 1.155.414.236.936.198 1.307-.096 1.25-.63 2.059-1.856 2.123-3.218.111-1.545-.91-2.964-2.293-2.41-.807.41-1.254 1.272-1.112 2.143" fill="#FFBE9D" fill-rule="nonzero"/>
            <path d="M456.092 198.048c-.44 1.328-1.588 4.348-2.81 4.053-1.222-.296.497-5.02 1.553-6.918-1.536-.005-3.43-.24-3.983-1.654-.124-.319-.223-.732-.56-.804-.277-.059-.523.165-.76.314-1.077.691-2.548.016-3.406-.929-.197-.216-.426-.469-.72-.448a1.007 1.007 0 0 0-.481.232c-1.771 1.24-6.475 1.181-6.46-1.006-1.548.779-2.552-1.118-2.46-2.417.094-1.298 1.077-3.466 3.211-3.413-.106-1.596 1.16-2.596 2.443-3.57a8.087 8.087 0 0 1 4.534-1.48c2.55-.114 5.451.927 6.321 3.301.04.18.14.34.285.456a.79.79 0 0 0 .595-.006 6.231 6.231 0 0 1 5.66 1.112 4.213 4.213 0 0 1 .844 5.375c1.494.35 2.296 2.107 2.062 3.61a7.812 7.812 0 0 1-2.264 3.891c1.619.513 2.265 2.704 1.445 4.177a4.771 4.771 0 0 1-4.61 2.029c.387-1.52-.279-3.267-1.763-3.539M440.471 223s-.509 23.741-1.471 38.185l3.473 4.815 2.389-6.03a184.64 184.64 0 0 0-2.26-36.805l-2.131-.165z" fill="#1B227A" fill-rule="nonzero"/>
            <path d="m440 220.596.09.349a7.05 7.05 0 0 0 .784 1.878l2.325.177s1.58-.814 1.79-1.69c.21-.876-2.595-2.31-2.595-2.31l-.34.132a5.038 5.038 0 0 0-2.023 1.432l-.031.032z" fill="#170D54" fill-rule="nonzero"/>
            <path d="M450.198 213a13.207 13.207 0 0 1 2.802 3c-1.66 3.472-3.987 6.538-6.83 9-.863-2.229-2.31-4.148-4.17-5.53 0 0 7.462-1.639 8.198-6.47zM442 219.943c-1.666.85-3.032 2.275-3.89 4.057a22.323 22.323 0 0 1 .53-7.53s1.315-2.424 1.87-2.47c-.231 2.865 1.49 5.943 1.49 5.943z" fill="#EAEAEA" fill-rule="nonzero"/>
            <path d="M439.028 336.427a11.02 11.02 0 0 1-.496-3.275c.026-.055.062-.117.08-.164v-.013c1.454-4.302 4.877-16.736 7.388-26.638L442.104 292s-2.363 29.181-3.138 31.276c-.776 2.096-3.181 8.834-2.95 10.287.23 1.452 1.758 4.114 1.523 6.413-.234 2.3-.2 22.915-.2 23.024.771-5.96 1.527-12.286 2.026-18.633.215-2.651.102-5.32-.337-7.94z" fill="#B03D44" fill-rule="nonzero"/>
            <ellipse stroke="#1B227A" stroke-width="5.282" transform="rotate(-32.432 364.936 218.26)" cx="364.936" cy="218.261" rx="29.092" ry="29.09"/>
            <path stroke="#1B227A" stroke-width="5.282" stroke-linecap="round" stroke-linejoin="round" d="m385 241 43 52"/>
            <path d="M425.386 274s-2.466.714-3.74 1.055c-.83.224-4.776-.169-7.097.323a5.406 5.406 0 0 0-3.01 1.43c-.724.827-.77 2.236.177 2.837.27.172.635.315.668.62a1.098 1.098 0 0 1-.115.445c-.162.466.004.975.416 1.281.412.306.985.345 1.44.097.045 1.016.905 1.838 2 1.912a1.538 1.538 0 0 1 .625-1.435 3.666 3.666 0 0 1 1.632-.315 4.539 4.539 0 0 0 2.63-1.16c.5-.463.87-1.03 1.326-1.53.947-1.031 2.234-1.746 3.662-2.033" fill="#FFBE9D" fill-rule="nonzero"/>
            <path d="M468.355 220.442a1.984 1.984 0 0 0-.29-.442l-10.973 10.92c-2.613 7.083-7.826 25.722-7.826 25.722s-4.938 2.357-8.253 4.108c-.84.444-3.211 2.064-6.02 4.046-.058.85-.11 1.52-.14 1.87-.2 2.312-.511 2.297.073 4.502-.18 1.963-.49 3.911-.926 5.832 8.244-2.147 25.259-7.572 25.903-7.926.966-.534 5.975-21.037 8.876-33.488.447-7.581.171-13.812-.424-15.144z" fill="#5AB5E2" fill-rule="nonzero" opacity=".45" style="mix-blend-mode:multiply"/>
            <path d="M456.995 229.779c-1.03 2.968-6.498 29.1-6.498 29.1a49.455 49.455 0 0 0-8.712 3.11C439.177 263.35 421 274.715 421 274.715l1.812 4.285s32.355-11.543 33.775-12.318c1.419-.775 14.413-33.774 14.413-39.662 0-3.468-2.79-7.02-2.79-7.02" fill="#57C6F2" fill-rule="nonzero"/>
            <path d="M401.948 266.99c-1.052.103-2.012-.639-2.238-1.729a1.787 1.787 0 0 0-.153-.619c-.19-.321-.594-.385-.938-.492-1.3-.543-2.237-1.764-2.471-3.22a4.558 4.558 0 0 1-.006-2.282c.202-.754.743-1.355 1.447-1.606a.642.642 0 0 1 .423-.012c.13.066.24.169.317.297.408.567.712 1.21.897 1.895.06.515.28.995.625 1.365.291.16.595.294.908.398.56.384.96.982 1.112 1.67.335 1.006-.11 3.291.075 4.336M405.967 261c.124-.921-.103-1.861-.614-2.549-.501-.63-1.117-1.104-1.797-1.378-.177-.08-.415-.134-.52.06a.543.543 0 0 0 .037.468c.254.537.786.779 1.06 1.296.091.202.173.411.244.626.312.776.903 1.323 1.593 1.476" fill="#FFBE9D" fill-rule="nonzero"/>
            <path d="M433 243.812s-3-7.653-3.544-10.812c-1.433 7.51-.959 20.658-2.168 21.78C426.08 255.902 414 263 414 263c5.705-1.847 12.676-4.496 14.626-6.928 1.103-1.375 2.748-6.453 4.372-12.259H433z" fill="#5AB5E2" fill-rule="nonzero" opacity=".45" style="mix-blend-mode:multiply"/>
            <path d="M441 209s4.953 1.288 5.83 1.119c.878-.17-1.905 1.8-2.422 1.873-.518.074-3.406-.402-3.406-.402L441 209z" fill="#F2A181" fill-rule="nonzero"/>
            <path d="M233.152 30.06c.058-.14-7.152 4.453-7.152 4.453L227.873 47l3.537-9.34 9.315-1.827L254 23l-20.848 7.06z" fill="#80CFFF" fill-rule="nonzero"/>
            <path fill="#A4E1FF" fill-rule="nonzero" d="m254 23-27 24 3.655-9.34z"/>
            <path fill="#C3ECFE" fill-rule="nonzero" d="m254 24-35 7.287 6.648 3.832L254 24l-22.874 14.157L242.43 45z"/>
            <path d="M126.245 185.954c.094.167.634.125.736.15.223.052.133.092 1.199 1.218.788.83 1.985.966 4.096.024 1.612-.719 1.255-1.934 1.313-2.544.057-.611.19-.732.451-.81.26-.077.41-.042.806.433a2.641 2.641 0 0 0 2.877 1.293c1.359-.313 1.818-.965 1.897-1.814.14-1.519.148-1.504.303-1.67.155-.164.05-.766-.09-1.08-.14-.316-1.143-.095-2.163.21-1.09.26-2.139.666-3.116 1.207-.525.434-.441.643-.732.734-.29.09-.372-.127-1.055-.2-.683-.074-3.402.74-4.421 1.044-1.02.304-2.408.844-2.344 1.182.05.218.13.428.243.623zm8.931-2.681c.008-.421.4-.558 1.574-.966 1.174-.409 1.67-.613 1.928-.48.258.132.528.704.46 1.587-.08 1.013-.329 1.52-1.297 1.809a1.75 1.75 0 0 1-2.139-.672 3.451 3.451 0 0 1-.526-1.278zm-7.291 1.777c.137-.25 1.727-.668 2.924-.969 1.196-.3 1.598-.4 1.838-.058.186.422.284.876.289 1.336.038.688-.055 1.307-1.91 1.87-1.31.397-1.987.165-2.624-.626-.553-.688-.655-1.308-.517-1.553z" fill="#170D54" fill-rule="nonzero"/>
            <rect fill="#C3ECFE" fill-rule="nonzero" transform="rotate(180 190.5 129.5)" x="158" y="106" width="65" height="47" rx="4.52"/>
            <path fill="#C3ECFE" fill-rule="nonzero" d="m216 138 16-4.385L217.734 130"/>
            <path fill="#0964AF" fill-rule="nonzero" opacity=".25" d="M191 129h-10v-2h10zM191 126h-17v-2h17zM215 139h-48v-3h48zM215 143h-48v-3h48zM191 122h-17v-2h17zM191 119h-6v-2h6zM195 123.999A10 10 0 1 0 205 114c-5.523 0-10 4.477-10 9.999z"/>
            <path d="M202.66 124.431c-1.25-.846-1.816-2.444-1.391-3.928.425-1.485 1.74-2.503 3.231-2.503 1.492 0 2.807 1.018 3.232 2.503.425 1.484-.141 3.082-1.391 3.928 2.142.526 3.657 2.51 3.659 4.795v2.907a9.035 9.035 0 0 1-11 0v-2.907c.003-2.285 1.517-4.27 3.66-4.795z" fill="#0964AF" fill-rule="nonzero" opacity=".19"/>
            <path d="M164.5 91.592a6.998 6.998 0 1 1-13-5.184 6.998 6.998 0 0 1 13 5.184z" fill="#FE7D90" fill-rule="nonzero"/>
            <path stroke="#FFF" stroke-width="1.056" stroke-linecap="round" stroke-linejoin="round" d="m155 88 1.61 3 5.39-2.785"/>
            <path d="M427.433 35.242a7 7 0 1 1-12.868 5.514 7 7 0 0 1 12.868-5.514z" fill="#FE7D90" fill-rule="nonzero"/>
            <path stroke="#FFF" stroke-width="1.056" stroke-linecap="round" stroke-linejoin="round" d="M418 39.633 421.578 41 423 35"/>
            <ellipse stroke="#FE7D90" stroke-width="2.113" fill="#FFF" fill-rule="nonzero" stroke-linecap="round" stroke-linejoin="round" transform="rotate(-80.738 493.6 273.004)" cx="493.6" cy="273.004" rx="20.897" ry="20.9"/>
            <circle stroke="#FE7D90" stroke-width="2.113" stroke-linecap="round" stroke-linejoin="round" cx="493.5" cy="273.5" r="14.5"/>
            <path d="M502 273.499a8.5 8.5 0 1 1-17 .002 8.5 8.5 0 0 1 17-.002z" stroke="#FE7D90" stroke-width="2.113" stroke-linecap="round" stroke-linejoin="round"/>
            <circle fill="#FE7D90" fill-rule="nonzero" cx="493.5" cy="273.5" r="3.5"/>
            <path stroke="#2F3F91" stroke-width="1.056" d="m494 273 27-27M525 247h-5v-5"/>
            <path stroke="#2F3F91" stroke-width="1.056" d="M523 249h-5v-5"/>
            <path stroke="#2F3F91" stroke-width="1.056" d="M520 251h-5v-5M498 273h-5v-5"/>
            <path d="M56 204.5a2.5 2.5 0 1 1-5 0 2.5 2.5 0 0 1 5 0zM527 149.5a2.5 2.5 0 1 1-5 0 2.5 2.5 0 0 1 5 0zM293 56.5a2.5 2.5 0 1 1-5 0 2.5 2.5 0 0 1 5 0zM210 104c-.552 0-1-.346-1-.773v-5.454c0-.427.448-.773 1-.773s1 .346 1 .773v5.454a.697.697 0 0 1-.293.547A1.165 1.165 0 0 1 210 104z" fill="#FE7D90" fill-rule="nonzero"/>
            <path d="M212.227 102h-5.454c-.427 0-.773-.448-.773-1s.346-1 .773-1h5.454c.427 0 .773.448.773 1s-.346 1-.773 1zM72 318c-.552 0-1-.348-1-.777v-5.471c.017-.42.46-.752 1-.752s.983.333 1 .752v5.473c-.002.428-.449.775-1 .775z" fill="#FE7D90" fill-rule="nonzero"/>
            <path d="M75.202 315h-5.453c-.418-.018-.749-.46-.749-1s.331-.982.749-1h5.453c.282-.011.546.177.69.49.144.315.144.705 0 1.02-.144.313-.408.501-.69.49zM548 234c-.552 0-1-.346-1-.773v-5.454c0-.427.448-.773 1-.773s1 .346 1 .773v5.454c0 .427-.448.773-1 .773z" fill="#FE7D90" fill-rule="nonzero"/>
            <path d="M551.227 231h-5.454c-.427 0-.773-.448-.773-1s.346-1 .773-1h5.454c.427 0 .773.448.773 1s-.346 1-.773 1z" fill="#FE7D90" fill-rule="nonzero"/>
            <path fill="#9BDFFF" fill-rule="nonzero" d="m362.494 8.456 34.602 11.53L389.6 42.48l-34.602-11.53z"/>
            <path fill="#9BDFFF" fill-rule="nonzero" d="M397 20 362 8.462 384.295 0z"/>
            <path fill="#FFF" fill-rule="nonzero" d="m366.43 7.832 27.7 9.231-7.8 23.395-27.7-9.23z"/>
            <path fill="#C2EBFF" fill-rule="nonzero" d="M362.575 9 355 31l21-4.585zM397 20l-7.387 22L376 26.138z"/>
            <path fill="#C2EBFF" fill-rule="nonzero" d="m390 42-35-11.537L377.295 22z"/>
            <path d="M355 31.202c1.823-.815 3.661-1.577 5.497-2.366l5.53-2.28c1.838-.77 3.7-1.481 5.55-2.221l5.56-2.201.337-.134.191.312 3.143 5.134c1.042 1.716 2.11 3.414 3.124 5.147l3.073 5.179c.998 1.744 2.018 3.47 2.995 5.228-1.143-1.65-2.237-3.331-3.358-4.997l-3.28-5.05c-1.104-1.675-2.152-3.386-3.229-5.08l-3.208-5.091.528.178-5.587 2.126c-1.865.702-3.72 1.431-5.596 2.104l-5.617 2.048c-1.886.655-3.76 1.336-5.653 1.964z" fill="#9BDFFF" fill-rule="nonzero"/>
        </g>
    </g>
</svg>
